G04 #@! TF.FileFunction,Soldermask,Top*
%FSLAX46Y46*%
G04 Gerber Fmt 4.6, Leading zero omitted, Abs format (unit mm)*
G04 Created by KiCad (PCBNEW 4.0.3-stable) date 05/03/17 00:29:37*
%MOMM*%
%LPD*%
G01*
G04 APERTURE LIST*
%ADD10C,0.152400*%
%ADD11C,2.600000*%
%ADD12R,0.750000X0.800000*%
%ADD13R,2.000000X1.900000*%
%ADD14C,1.900000*%
%ADD15C,1.700000*%
%ADD16R,1.400000X1.000000*%
%ADD17R,0.500000X0.900000*%
%ADD18R,0.900000X0.500000*%
%ADD19C,2.100000*%
%ADD20C,2.500000*%
%ADD21C,2.000000*%
%ADD22C,5.000000*%
G04 APERTURE END LIST*
D10*
D11*
X119600000Y-57600000D03*
X114600000Y-57600000D03*
X109600000Y-57600000D03*
D12*
X127508000Y-95135000D03*
X127508000Y-96635000D03*
D13*
X140462000Y-82296000D03*
D14*
X140462000Y-79756000D03*
D13*
X123700000Y-97900000D03*
D14*
X123700000Y-95360000D03*
D11*
X126000000Y-57600000D03*
X131000000Y-57600000D03*
X136000000Y-57600000D03*
D15*
X124333000Y-87122000D03*
X126873000Y-87122000D03*
X129413000Y-87122000D03*
X131953000Y-87122000D03*
X134493000Y-87122000D03*
X137033000Y-87122000D03*
D16*
X125900000Y-93900000D03*
X125900000Y-92000000D03*
X123700000Y-92950000D03*
D17*
X124150000Y-90400000D03*
X122650000Y-90400000D03*
D18*
X129159000Y-96635000D03*
X129159000Y-95135000D03*
D17*
X126450000Y-90400000D03*
X127950000Y-90400000D03*
D18*
X129159000Y-92341000D03*
X129159000Y-93841000D03*
D19*
X124658000Y-79121000D03*
X136708000Y-79121000D03*
D20*
X130683000Y-81171000D03*
X124658000Y-66921000D03*
X136708000Y-66921000D03*
D21*
X131826000Y-96647000D03*
X131826000Y-91347000D03*
X135300000Y-96700000D03*
D14*
X135300000Y-94160000D03*
D20*
X114400000Y-67900000D03*
X109400000Y-67900000D03*
X119600000Y-97300000D03*
X104200000Y-97300000D03*
D22*
X104300000Y-54200000D03*
X141300000Y-54300000D03*
M02*
