G04 #@! TF.FileFunction,Legend,Bot*
%FSLAX46Y46*%
G04 Gerber Fmt 4.6, Leading zero omitted, Abs format (unit mm)*
G04 Created by KiCad (PCBNEW 4.0.3-stable) date 05/03/17 00:29:37*
%MOMM*%
%LPD*%
G01*
G04 APERTURE LIST*
%ADD10C,0.152400*%
%ADD11C,0.300000*%
%ADD12C,0.150000*%
G04 APERTURE END LIST*
D10*
D11*
X136350000Y-51764286D02*
X136350000Y-52478572D01*
X136778571Y-51621429D02*
X135278571Y-52121429D01*
X136778571Y-52621429D01*
X136635714Y-53978572D02*
X136707143Y-53907143D01*
X136778571Y-53692857D01*
X136778571Y-53550000D01*
X136707143Y-53335715D01*
X136564286Y-53192857D01*
X136421429Y-53121429D01*
X136135714Y-53050000D01*
X135921429Y-53050000D01*
X135635714Y-53121429D01*
X135492857Y-53192857D01*
X135350000Y-53335715D01*
X135278571Y-53550000D01*
X135278571Y-53692857D01*
X135350000Y-53907143D01*
X135421429Y-53978572D01*
X136207143Y-54621429D02*
X136207143Y-55764286D01*
X131978571Y-52085714D02*
X130478571Y-52085714D01*
X131978571Y-52942857D01*
X130478571Y-52942857D01*
X130478571Y-53942857D02*
X130478571Y-54228571D01*
X130550000Y-54371429D01*
X130692857Y-54514286D01*
X130978571Y-54585714D01*
X131478571Y-54585714D01*
X131764286Y-54514286D01*
X131907143Y-54371429D01*
X131978571Y-54228571D01*
X131978571Y-53942857D01*
X131907143Y-53800000D01*
X131764286Y-53657143D01*
X131478571Y-53585714D01*
X130978571Y-53585714D01*
X130692857Y-53657143D01*
X130550000Y-53800000D01*
X130478571Y-53942857D01*
X126478571Y-52321429D02*
X124978571Y-52321429D01*
X126478571Y-53178572D01*
X124978571Y-53178572D01*
X126335714Y-54750001D02*
X126407143Y-54678572D01*
X126478571Y-54464286D01*
X126478571Y-54321429D01*
X126407143Y-54107144D01*
X126264286Y-53964286D01*
X126121429Y-53892858D01*
X125835714Y-53821429D01*
X125621429Y-53821429D01*
X125335714Y-53892858D01*
X125192857Y-53964286D01*
X125050000Y-54107144D01*
X124978571Y-54321429D01*
X124978571Y-54464286D01*
X125050000Y-54678572D01*
X125121429Y-54750001D01*
X119950000Y-51664286D02*
X119950000Y-52378572D01*
X120378571Y-51521429D02*
X118878571Y-52021429D01*
X120378571Y-52521429D01*
X120235714Y-53878572D02*
X120307143Y-53807143D01*
X120378571Y-53592857D01*
X120378571Y-53450000D01*
X120307143Y-53235715D01*
X120164286Y-53092857D01*
X120021429Y-53021429D01*
X119735714Y-52950000D01*
X119521429Y-52950000D01*
X119235714Y-53021429D01*
X119092857Y-53092857D01*
X118950000Y-53235715D01*
X118878571Y-53450000D01*
X118878571Y-53592857D01*
X118950000Y-53807143D01*
X119021429Y-53878572D01*
X119807143Y-54521429D02*
X119807143Y-55664286D01*
X120378571Y-55092857D02*
X119235714Y-55092857D01*
X109750000Y-51864286D02*
X109750000Y-52578572D01*
X110178571Y-51721429D02*
X108678571Y-52221429D01*
X110178571Y-52721429D01*
X110035714Y-54078572D02*
X110107143Y-54007143D01*
X110178571Y-53792857D01*
X110178571Y-53650000D01*
X110107143Y-53435715D01*
X109964286Y-53292857D01*
X109821429Y-53221429D01*
X109535714Y-53150000D01*
X109321429Y-53150000D01*
X109035714Y-53221429D01*
X108892857Y-53292857D01*
X108750000Y-53435715D01*
X108678571Y-53650000D01*
X108678571Y-53792857D01*
X108750000Y-54007143D01*
X108821429Y-54078572D01*
X109607143Y-54721429D02*
X109607143Y-55864286D01*
X120771428Y-99407143D02*
X119628571Y-99407143D01*
X102771428Y-99007143D02*
X101628571Y-99007143D01*
X102200000Y-99578571D02*
X102200000Y-98435714D01*
X117928571Y-59828571D02*
X117571428Y-61328571D01*
X117285714Y-60257143D01*
X117000000Y-61328571D01*
X116642857Y-59828571D01*
X116071428Y-61328571D02*
X116071428Y-60328571D01*
X116071428Y-59828571D02*
X116142857Y-59900000D01*
X116071428Y-59971429D01*
X116000000Y-59900000D01*
X116071428Y-59828571D01*
X116071428Y-59971429D01*
X115357142Y-61328571D02*
X115357142Y-59828571D01*
X115357142Y-60542857D02*
X114499999Y-60542857D01*
X114499999Y-61328571D02*
X114499999Y-59828571D01*
X113571427Y-61328571D02*
X113714285Y-61257143D01*
X113785713Y-61185714D01*
X113857142Y-61042857D01*
X113857142Y-60614286D01*
X113785713Y-60471429D01*
X113714285Y-60400000D01*
X113571427Y-60328571D01*
X113357142Y-60328571D01*
X113214285Y-60400000D01*
X113142856Y-60471429D01*
X113071427Y-60614286D01*
X113071427Y-61042857D01*
X113142856Y-61185714D01*
X113214285Y-61257143D01*
X113357142Y-61328571D01*
X113571427Y-61328571D01*
X112428570Y-61328571D02*
X112428570Y-60328571D01*
X112428570Y-60471429D02*
X112357142Y-60400000D01*
X112214284Y-60328571D01*
X111999999Y-60328571D01*
X111857142Y-60400000D01*
X111785713Y-60542857D01*
X111785713Y-61328571D01*
X111785713Y-60542857D02*
X111714284Y-60400000D01*
X111571427Y-60328571D01*
X111357142Y-60328571D01*
X111214284Y-60400000D01*
X111142856Y-60542857D01*
X111142856Y-61328571D01*
X109857142Y-61257143D02*
X109999999Y-61328571D01*
X110285713Y-61328571D01*
X110428570Y-61257143D01*
X110499999Y-61114286D01*
X110499999Y-60542857D01*
X110428570Y-60400000D01*
X110285713Y-60328571D01*
X109999999Y-60328571D01*
X109857142Y-60400000D01*
X109785713Y-60542857D01*
X109785713Y-60685714D01*
X110499999Y-60828571D01*
X108214285Y-59828571D02*
X107714285Y-61328571D01*
X107214285Y-59828571D01*
X106428571Y-59828571D02*
X106285714Y-59828571D01*
X106142857Y-59900000D01*
X106071428Y-59971429D01*
X105999999Y-60114286D01*
X105928571Y-60400000D01*
X105928571Y-60757143D01*
X105999999Y-61042857D01*
X106071428Y-61185714D01*
X106142857Y-61257143D01*
X106285714Y-61328571D01*
X106428571Y-61328571D01*
X106571428Y-61257143D01*
X106642857Y-61185714D01*
X106714285Y-61042857D01*
X106785714Y-60757143D01*
X106785714Y-60400000D01*
X106714285Y-60114286D01*
X106642857Y-59971429D01*
X106571428Y-59900000D01*
X106428571Y-59828571D01*
X105285714Y-61185714D02*
X105214286Y-61257143D01*
X105285714Y-61328571D01*
X105357143Y-61257143D01*
X105285714Y-61185714D01*
X105285714Y-61328571D01*
X104714285Y-59828571D02*
X103785714Y-59828571D01*
X104285714Y-60400000D01*
X104071428Y-60400000D01*
X103928571Y-60471429D01*
X103857142Y-60542857D01*
X103785714Y-60685714D01*
X103785714Y-61042857D01*
X103857142Y-61185714D01*
X103928571Y-61257143D01*
X104071428Y-61328571D01*
X104500000Y-61328571D01*
X104642857Y-61257143D01*
X104714285Y-61185714D01*
X117142858Y-63878571D02*
X117142858Y-62378571D01*
X116785715Y-62378571D01*
X116571430Y-62450000D01*
X116428572Y-62592857D01*
X116357144Y-62735714D01*
X116285715Y-63021429D01*
X116285715Y-63235714D01*
X116357144Y-63521429D01*
X116428572Y-63664286D01*
X116571430Y-63807143D01*
X116785715Y-63878571D01*
X117142858Y-63878571D01*
X115071430Y-63807143D02*
X115214287Y-63878571D01*
X115500001Y-63878571D01*
X115642858Y-63807143D01*
X115714287Y-63664286D01*
X115714287Y-63092857D01*
X115642858Y-62950000D01*
X115500001Y-62878571D01*
X115214287Y-62878571D01*
X115071430Y-62950000D01*
X115000001Y-63092857D01*
X115000001Y-63235714D01*
X115714287Y-63378571D01*
X114428573Y-63807143D02*
X114285716Y-63878571D01*
X114000001Y-63878571D01*
X113857144Y-63807143D01*
X113785716Y-63664286D01*
X113785716Y-63592857D01*
X113857144Y-63450000D01*
X114000001Y-63378571D01*
X114214287Y-63378571D01*
X114357144Y-63307143D01*
X114428573Y-63164286D01*
X114428573Y-63092857D01*
X114357144Y-62950000D01*
X114214287Y-62878571D01*
X114000001Y-62878571D01*
X113857144Y-62950000D01*
X113142858Y-63878571D02*
X113142858Y-62878571D01*
X113142858Y-62378571D02*
X113214287Y-62450000D01*
X113142858Y-62521429D01*
X113071430Y-62450000D01*
X113142858Y-62378571D01*
X113142858Y-62521429D01*
X111785715Y-62878571D02*
X111785715Y-64092857D01*
X111857144Y-64235714D01*
X111928572Y-64307143D01*
X112071429Y-64378571D01*
X112285715Y-64378571D01*
X112428572Y-64307143D01*
X111785715Y-63807143D02*
X111928572Y-63878571D01*
X112214286Y-63878571D01*
X112357144Y-63807143D01*
X112428572Y-63735714D01*
X112500001Y-63592857D01*
X112500001Y-63164286D01*
X112428572Y-63021429D01*
X112357144Y-62950000D01*
X112214286Y-62878571D01*
X111928572Y-62878571D01*
X111785715Y-62950000D01*
X111071429Y-62878571D02*
X111071429Y-63878571D01*
X111071429Y-63021429D02*
X111000001Y-62950000D01*
X110857143Y-62878571D01*
X110642858Y-62878571D01*
X110500001Y-62950000D01*
X110428572Y-63092857D01*
X110428572Y-63878571D01*
X109714286Y-63735714D02*
X109642858Y-63807143D01*
X109714286Y-63878571D01*
X109785715Y-63807143D01*
X109714286Y-63735714D01*
X109714286Y-63878571D01*
X109714286Y-62950000D02*
X109642858Y-63021429D01*
X109714286Y-63092857D01*
X109785715Y-63021429D01*
X109714286Y-62950000D01*
X109714286Y-63092857D01*
X107857143Y-63878571D02*
X107857143Y-62378571D01*
X107357143Y-63450000D01*
X106857143Y-62378571D01*
X106857143Y-63878571D01*
X106142857Y-63878571D02*
X106142857Y-62378571D01*
X105285714Y-63878571D01*
X105285714Y-62378571D01*
X104642857Y-63807143D02*
X104428571Y-63878571D01*
X104071428Y-63878571D01*
X103928571Y-63807143D01*
X103857142Y-63735714D01*
X103785714Y-63592857D01*
X103785714Y-63450000D01*
X103857142Y-63307143D01*
X103928571Y-63235714D01*
X104071428Y-63164286D01*
X104357142Y-63092857D01*
X104500000Y-63021429D01*
X104571428Y-62950000D01*
X104642857Y-62807143D01*
X104642857Y-62664286D01*
X104571428Y-62521429D01*
X104500000Y-62450000D01*
X104357142Y-62378571D01*
X104000000Y-62378571D01*
X103785714Y-62450000D01*
X122071426Y-66000000D02*
X121357140Y-66000000D01*
X122214283Y-66428571D02*
X121714283Y-64928571D01*
X121214283Y-66428571D01*
X120714283Y-65428571D02*
X120714283Y-66928571D01*
X120714283Y-65500000D02*
X120571426Y-65428571D01*
X120285712Y-65428571D01*
X120142855Y-65500000D01*
X120071426Y-65571429D01*
X119999997Y-65714286D01*
X119999997Y-66142857D01*
X120071426Y-66285714D01*
X120142855Y-66357143D01*
X120285712Y-66428571D01*
X120571426Y-66428571D01*
X120714283Y-66357143D01*
X119357140Y-66428571D02*
X119357140Y-65428571D01*
X119357140Y-65714286D02*
X119285712Y-65571429D01*
X119214283Y-65500000D01*
X119071426Y-65428571D01*
X118928569Y-65428571D01*
X118428569Y-66428571D02*
X118428569Y-65428571D01*
X118428569Y-64928571D02*
X118499998Y-65000000D01*
X118428569Y-65071429D01*
X118357141Y-65000000D01*
X118428569Y-64928571D01*
X118428569Y-65071429D01*
X117499997Y-66428571D02*
X117642855Y-66357143D01*
X117714283Y-66214286D01*
X117714283Y-64928571D01*
X115857141Y-65071429D02*
X115785712Y-65000000D01*
X115642855Y-64928571D01*
X115285712Y-64928571D01*
X115142855Y-65000000D01*
X115071426Y-65071429D01*
X114999998Y-65214286D01*
X114999998Y-65357143D01*
X115071426Y-65571429D01*
X115928569Y-66428571D01*
X114999998Y-66428571D01*
X114285713Y-66428571D02*
X113999998Y-66428571D01*
X113857141Y-66357143D01*
X113785713Y-66285714D01*
X113642855Y-66071429D01*
X113571427Y-65785714D01*
X113571427Y-65214286D01*
X113642855Y-65071429D01*
X113714284Y-65000000D01*
X113857141Y-64928571D01*
X114142855Y-64928571D01*
X114285713Y-65000000D01*
X114357141Y-65071429D01*
X114428570Y-65214286D01*
X114428570Y-65571429D01*
X114357141Y-65714286D01*
X114285713Y-65785714D01*
X114142855Y-65857143D01*
X113857141Y-65857143D01*
X113714284Y-65785714D01*
X113642855Y-65714286D01*
X113571427Y-65571429D01*
X113142856Y-65428571D02*
X112571427Y-65428571D01*
X112928570Y-64928571D02*
X112928570Y-66214286D01*
X112857142Y-66357143D01*
X112714284Y-66428571D01*
X112571427Y-66428571D01*
X112071427Y-66428571D02*
X112071427Y-64928571D01*
X111428570Y-66428571D02*
X111428570Y-65642857D01*
X111499999Y-65500000D01*
X111642856Y-65428571D01*
X111857141Y-65428571D01*
X111999999Y-65500000D01*
X112071427Y-65571429D01*
X110642856Y-66357143D02*
X110642856Y-66428571D01*
X110714284Y-66571429D01*
X110785713Y-66642857D01*
X108928570Y-65071429D02*
X108857141Y-65000000D01*
X108714284Y-64928571D01*
X108357141Y-64928571D01*
X108214284Y-65000000D01*
X108142855Y-65071429D01*
X108071427Y-65214286D01*
X108071427Y-65357143D01*
X108142855Y-65571429D01*
X108999998Y-66428571D01*
X108071427Y-66428571D01*
X107142856Y-64928571D02*
X106999999Y-64928571D01*
X106857142Y-65000000D01*
X106785713Y-65071429D01*
X106714284Y-65214286D01*
X106642856Y-65500000D01*
X106642856Y-65857143D01*
X106714284Y-66142857D01*
X106785713Y-66285714D01*
X106857142Y-66357143D01*
X106999999Y-66428571D01*
X107142856Y-66428571D01*
X107285713Y-66357143D01*
X107357142Y-66285714D01*
X107428570Y-66142857D01*
X107499999Y-65857143D01*
X107499999Y-65500000D01*
X107428570Y-65214286D01*
X107357142Y-65071429D01*
X107285713Y-65000000D01*
X107142856Y-64928571D01*
X105214285Y-66428571D02*
X106071428Y-66428571D01*
X105642856Y-66428571D02*
X105642856Y-64928571D01*
X105785713Y-65142857D01*
X105928571Y-65285714D01*
X106071428Y-65357143D01*
X104714285Y-64928571D02*
X103714285Y-64928571D01*
X104357142Y-66428571D01*
D12*
X107450000Y-97300000D02*
X108150000Y-97300000D01*
X108150000Y-96100000D02*
X107450000Y-96100000D01*
X107450000Y-99000000D02*
X108150000Y-99000000D01*
X108150000Y-97800000D02*
X107450000Y-97800000D01*
X108150000Y-99500000D02*
X107450000Y-99500000D01*
X107450000Y-100700000D02*
X108150000Y-100700000D01*
X114750000Y-100400000D02*
X115450000Y-100400000D01*
X115450000Y-99200000D02*
X114750000Y-99200000D01*
X104937000Y-72929000D02*
X104937000Y-73629000D01*
X106137000Y-73629000D02*
X106137000Y-72929000D01*
X107854000Y-74514000D02*
X108554000Y-74514000D01*
X108554000Y-73314000D02*
X107854000Y-73314000D01*
X107854000Y-72990000D02*
X108554000Y-72990000D01*
X108554000Y-71790000D02*
X107854000Y-71790000D01*
X138937096Y-83510888D02*
G75*
G02X141962000Y-83526000I1524904J2484888D01*
G01*
X138962000Y-83526000D02*
X141962000Y-83526000D01*
X142979936Y-81026000D02*
G75*
G03X142979936Y-81026000I-2517936J0D01*
G01*
X122175096Y-99114888D02*
G75*
G02X125200000Y-99130000I1524904J2484888D01*
G01*
X122200000Y-99130000D02*
X125200000Y-99130000D01*
X126217936Y-96630000D02*
G75*
G03X126217936Y-96630000I-2517936J0D01*
G01*
X125946000Y-73522000D02*
X129446000Y-73522000D01*
X129446000Y-73522000D02*
X129446000Y-75922000D01*
X129446000Y-75922000D02*
X128646000Y-75922000D01*
X128646000Y-75922000D02*
X128646000Y-77622000D01*
X128646000Y-77622000D02*
X126846000Y-77622000D01*
X126846000Y-77622000D02*
X126846000Y-75922000D01*
X126846000Y-75922000D02*
X125846000Y-75922000D01*
X125846000Y-75922000D02*
X125846000Y-73522000D01*
X125846000Y-73522000D02*
X125946000Y-73522000D01*
X135977000Y-81542000D02*
X135977000Y-82542000D01*
X137327000Y-82542000D02*
X137327000Y-81542000D01*
X123198000Y-75224000D02*
X124198000Y-75224000D01*
X124198000Y-73874000D02*
X123198000Y-73874000D01*
X128900000Y-98225000D02*
X127900000Y-98225000D01*
X127900000Y-99575000D02*
X128900000Y-99575000D01*
X110523607Y-98200000D02*
G75*
G03X110523607Y-98200000I-223607J0D01*
G01*
X109900000Y-99200000D02*
X109900000Y-97800000D01*
X109900000Y-97800000D02*
X112800000Y-97800000D01*
X112800000Y-97800000D02*
X112800000Y-99200000D01*
X112800000Y-99200000D02*
X109900000Y-99200000D01*
X131826000Y-86233000D02*
X145034000Y-86233000D01*
X145034000Y-86233000D02*
X145034000Y-100457000D01*
X145034000Y-100457000D02*
X131826000Y-100457000D01*
X131826000Y-100457000D02*
X131826000Y-86233000D01*
X118999000Y-90208000D02*
X118999000Y-92708000D01*
X118999000Y-92708000D02*
X117999000Y-92708000D01*
X117999000Y-76708000D02*
X118999000Y-76708000D01*
X118999000Y-76708000D02*
X118999000Y-79208000D01*
X94999000Y-92708000D02*
X102999000Y-92708000D01*
X94999000Y-76708000D02*
X102999000Y-76708000D01*
X95499000Y-77208000D02*
X101999000Y-77208000D01*
X101999000Y-77208000D02*
X101999000Y-92208000D01*
X101999000Y-92208000D02*
X95499000Y-92208000D01*
X95499000Y-92208000D02*
X95499000Y-77208000D01*
X102499000Y-76708000D02*
X102499000Y-92708000D01*
X103499000Y-78708000D02*
X117499000Y-78708000D01*
X117499000Y-78708000D02*
X117499000Y-90708000D01*
X117499000Y-90708000D02*
X103499000Y-90708000D01*
X103499000Y-90708000D02*
X103499000Y-78708000D01*
X94999000Y-92708000D02*
X94999000Y-76708000D01*
X132130000Y-75413000D02*
X131640000Y-74523000D01*
X132080000Y-75453000D02*
X132540000Y-74563000D01*
X132550000Y-75483000D02*
X131610000Y-75493000D01*
X132570000Y-75683000D02*
X131600000Y-75693000D01*
X131600000Y-75693000D02*
X131600000Y-74473000D01*
X131600000Y-74473000D02*
X132560000Y-74473000D01*
X132560000Y-74473000D02*
X132560000Y-75683000D01*
X107966666Y-95657143D02*
X108014285Y-95704762D01*
X108157142Y-95752381D01*
X108252380Y-95752381D01*
X108395238Y-95704762D01*
X108490476Y-95609524D01*
X108538095Y-95514286D01*
X108585714Y-95323810D01*
X108585714Y-95180952D01*
X108538095Y-94990476D01*
X108490476Y-94895238D01*
X108395238Y-94800000D01*
X108252380Y-94752381D01*
X108157142Y-94752381D01*
X108014285Y-94800000D01*
X107966666Y-94847619D01*
X107585714Y-94847619D02*
X107538095Y-94800000D01*
X107442857Y-94752381D01*
X107204761Y-94752381D01*
X107109523Y-94800000D01*
X107061904Y-94847619D01*
X107014285Y-94942857D01*
X107014285Y-95038095D01*
X107061904Y-95180952D01*
X107633333Y-95752381D01*
X107014285Y-95752381D01*
X105466666Y-99757143D02*
X105514285Y-99804762D01*
X105657142Y-99852381D01*
X105752380Y-99852381D01*
X105895238Y-99804762D01*
X105990476Y-99709524D01*
X106038095Y-99614286D01*
X106085714Y-99423810D01*
X106085714Y-99280952D01*
X106038095Y-99090476D01*
X105990476Y-98995238D01*
X105895238Y-98900000D01*
X105752380Y-98852381D01*
X105657142Y-98852381D01*
X105514285Y-98900000D01*
X105466666Y-98947619D01*
X104514285Y-99852381D02*
X105085714Y-99852381D01*
X104800000Y-99852381D02*
X104800000Y-98852381D01*
X104895238Y-98995238D01*
X104990476Y-99090476D01*
X105085714Y-99138095D01*
X105466666Y-101157143D02*
X105514285Y-101204762D01*
X105657142Y-101252381D01*
X105752380Y-101252381D01*
X105895238Y-101204762D01*
X105990476Y-101109524D01*
X106038095Y-101014286D01*
X106085714Y-100823810D01*
X106085714Y-100680952D01*
X106038095Y-100490476D01*
X105990476Y-100395238D01*
X105895238Y-100300000D01*
X105752380Y-100252381D01*
X105657142Y-100252381D01*
X105514285Y-100300000D01*
X105466666Y-100347619D01*
X105133333Y-100252381D02*
X104514285Y-100252381D01*
X104847619Y-100633333D01*
X104704761Y-100633333D01*
X104609523Y-100680952D01*
X104561904Y-100728571D01*
X104514285Y-100823810D01*
X104514285Y-101061905D01*
X104561904Y-101157143D01*
X104609523Y-101204762D01*
X104704761Y-101252381D01*
X104990476Y-101252381D01*
X105085714Y-101204762D01*
X105133333Y-101157143D01*
X117966666Y-100157143D02*
X118014285Y-100204762D01*
X118157142Y-100252381D01*
X118252380Y-100252381D01*
X118395238Y-100204762D01*
X118490476Y-100109524D01*
X118538095Y-100014286D01*
X118585714Y-99823810D01*
X118585714Y-99680952D01*
X118538095Y-99490476D01*
X118490476Y-99395238D01*
X118395238Y-99300000D01*
X118252380Y-99252381D01*
X118157142Y-99252381D01*
X118014285Y-99300000D01*
X117966666Y-99347619D01*
X117109523Y-99585714D02*
X117109523Y-100252381D01*
X117347619Y-99204762D02*
X117585714Y-99919048D01*
X116966666Y-99919048D01*
X105957143Y-70733334D02*
X106004762Y-70685715D01*
X106052381Y-70542858D01*
X106052381Y-70447620D01*
X106004762Y-70304762D01*
X105909524Y-70209524D01*
X105814286Y-70161905D01*
X105623810Y-70114286D01*
X105480952Y-70114286D01*
X105290476Y-70161905D01*
X105195238Y-70209524D01*
X105100000Y-70304762D01*
X105052381Y-70447620D01*
X105052381Y-70542858D01*
X105100000Y-70685715D01*
X105147619Y-70733334D01*
X105052381Y-71638096D02*
X105052381Y-71161905D01*
X105528571Y-71114286D01*
X105480952Y-71161905D01*
X105433333Y-71257143D01*
X105433333Y-71495239D01*
X105480952Y-71590477D01*
X105528571Y-71638096D01*
X105623810Y-71685715D01*
X105861905Y-71685715D01*
X105957143Y-71638096D01*
X106004762Y-71590477D01*
X106052381Y-71495239D01*
X106052381Y-71257143D01*
X106004762Y-71161905D01*
X105957143Y-71114286D01*
X109457143Y-70733334D02*
X109504762Y-70685715D01*
X109552381Y-70542858D01*
X109552381Y-70447620D01*
X109504762Y-70304762D01*
X109409524Y-70209524D01*
X109314286Y-70161905D01*
X109123810Y-70114286D01*
X108980952Y-70114286D01*
X108790476Y-70161905D01*
X108695238Y-70209524D01*
X108600000Y-70304762D01*
X108552381Y-70447620D01*
X108552381Y-70542858D01*
X108600000Y-70685715D01*
X108647619Y-70733334D01*
X108552381Y-71066667D02*
X108552381Y-71733334D01*
X109552381Y-71304762D01*
X107857143Y-70833334D02*
X107904762Y-70785715D01*
X107952381Y-70642858D01*
X107952381Y-70547620D01*
X107904762Y-70404762D01*
X107809524Y-70309524D01*
X107714286Y-70261905D01*
X107523810Y-70214286D01*
X107380952Y-70214286D01*
X107190476Y-70261905D01*
X107095238Y-70309524D01*
X107000000Y-70404762D01*
X106952381Y-70547620D01*
X106952381Y-70642858D01*
X107000000Y-70785715D01*
X107047619Y-70833334D01*
X107380952Y-71404762D02*
X107333333Y-71309524D01*
X107285714Y-71261905D01*
X107190476Y-71214286D01*
X107142857Y-71214286D01*
X107047619Y-71261905D01*
X107000000Y-71309524D01*
X106952381Y-71404762D01*
X106952381Y-71595239D01*
X107000000Y-71690477D01*
X107047619Y-71738096D01*
X107142857Y-71785715D01*
X107190476Y-71785715D01*
X107285714Y-71738096D01*
X107333333Y-71690477D01*
X107380952Y-71595239D01*
X107380952Y-71404762D01*
X107428571Y-71309524D01*
X107476190Y-71261905D01*
X107571429Y-71214286D01*
X107761905Y-71214286D01*
X107857143Y-71261905D01*
X107904762Y-71309524D01*
X107952381Y-71404762D01*
X107952381Y-71595239D01*
X107904762Y-71690477D01*
X107857143Y-71738096D01*
X107761905Y-71785715D01*
X107571429Y-71785715D01*
X107476190Y-71738096D01*
X107428571Y-71690477D01*
X107380952Y-71595239D01*
X140952381Y-76661905D02*
X139952381Y-76661905D01*
X139952381Y-76900000D01*
X140000000Y-77042858D01*
X140095238Y-77138096D01*
X140190476Y-77185715D01*
X140380952Y-77233334D01*
X140523810Y-77233334D01*
X140714286Y-77185715D01*
X140809524Y-77138096D01*
X140904762Y-77042858D01*
X140952381Y-76900000D01*
X140952381Y-76661905D01*
X140047619Y-77614286D02*
X140000000Y-77661905D01*
X139952381Y-77757143D01*
X139952381Y-77995239D01*
X140000000Y-78090477D01*
X140047619Y-78138096D01*
X140142857Y-78185715D01*
X140238095Y-78185715D01*
X140380952Y-78138096D01*
X140952381Y-77566667D01*
X140952381Y-78185715D01*
X139009381Y-83939095D02*
X138009381Y-83939095D01*
X139009381Y-84510524D02*
X138437952Y-84081952D01*
X138009381Y-84510524D02*
X138580810Y-83939095D01*
X127852381Y-94361905D02*
X126852381Y-94361905D01*
X126852381Y-94600000D01*
X126900000Y-94742858D01*
X126995238Y-94838096D01*
X127090476Y-94885715D01*
X127280952Y-94933334D01*
X127423810Y-94933334D01*
X127614286Y-94885715D01*
X127709524Y-94838096D01*
X127804762Y-94742858D01*
X127852381Y-94600000D01*
X127852381Y-94361905D01*
X126852381Y-95266667D02*
X126852381Y-95885715D01*
X127233333Y-95552381D01*
X127233333Y-95695239D01*
X127280952Y-95790477D01*
X127328571Y-95838096D01*
X127423810Y-95885715D01*
X127661905Y-95885715D01*
X127757143Y-95838096D01*
X127804762Y-95790477D01*
X127852381Y-95695239D01*
X127852381Y-95409524D01*
X127804762Y-95314286D01*
X127757143Y-95266667D01*
X124152381Y-99738095D02*
X123152381Y-99738095D01*
X124152381Y-100309524D02*
X123580952Y-99880952D01*
X123152381Y-100309524D02*
X123723810Y-99738095D01*
X127595238Y-73247619D02*
X127690476Y-73200000D01*
X127785714Y-73104762D01*
X127928571Y-72961905D01*
X128023810Y-72914286D01*
X128119048Y-72914286D01*
X128071429Y-73152381D02*
X128166667Y-73104762D01*
X128261905Y-73009524D01*
X128309524Y-72819048D01*
X128309524Y-72485714D01*
X128261905Y-72295238D01*
X128166667Y-72200000D01*
X128071429Y-72152381D01*
X127880952Y-72152381D01*
X127785714Y-72200000D01*
X127690476Y-72295238D01*
X127642857Y-72485714D01*
X127642857Y-72819048D01*
X127690476Y-73009524D01*
X127785714Y-73104762D01*
X127880952Y-73152381D01*
X128071429Y-73152381D01*
X127261905Y-72247619D02*
X127214286Y-72200000D01*
X127119048Y-72152381D01*
X126880952Y-72152381D01*
X126785714Y-72200000D01*
X126738095Y-72247619D01*
X126690476Y-72342857D01*
X126690476Y-72438095D01*
X126738095Y-72580952D01*
X127309524Y-73152381D01*
X126690476Y-73152381D01*
X137052381Y-84333334D02*
X136576190Y-84000000D01*
X137052381Y-83761905D02*
X136052381Y-83761905D01*
X136052381Y-84142858D01*
X136100000Y-84238096D01*
X136147619Y-84285715D01*
X136242857Y-84333334D01*
X136385714Y-84333334D01*
X136480952Y-84285715D01*
X136528571Y-84238096D01*
X136576190Y-84142858D01*
X136576190Y-83761905D01*
X136052381Y-85238096D02*
X136052381Y-84761905D01*
X136528571Y-84714286D01*
X136480952Y-84761905D01*
X136433333Y-84857143D01*
X136433333Y-85095239D01*
X136480952Y-85190477D01*
X136528571Y-85238096D01*
X136623810Y-85285715D01*
X136861905Y-85285715D01*
X136957143Y-85238096D01*
X137004762Y-85190477D01*
X137052381Y-85095239D01*
X137052381Y-84857143D01*
X137004762Y-84761905D01*
X136957143Y-84714286D01*
X121366666Y-75052381D02*
X121700000Y-74576190D01*
X121938095Y-75052381D02*
X121938095Y-74052381D01*
X121557142Y-74052381D01*
X121461904Y-74100000D01*
X121414285Y-74147619D01*
X121366666Y-74242857D01*
X121366666Y-74385714D01*
X121414285Y-74480952D01*
X121461904Y-74528571D01*
X121557142Y-74576190D01*
X121938095Y-74576190D01*
X120509523Y-74052381D02*
X120700000Y-74052381D01*
X120795238Y-74100000D01*
X120842857Y-74147619D01*
X120938095Y-74290476D01*
X120985714Y-74480952D01*
X120985714Y-74861905D01*
X120938095Y-74957143D01*
X120890476Y-75004762D01*
X120795238Y-75052381D01*
X120604761Y-75052381D01*
X120509523Y-75004762D01*
X120461904Y-74957143D01*
X120414285Y-74861905D01*
X120414285Y-74623810D01*
X120461904Y-74528571D01*
X120509523Y-74480952D01*
X120604761Y-74433333D01*
X120795238Y-74433333D01*
X120890476Y-74480952D01*
X120938095Y-74528571D01*
X120985714Y-74623810D01*
X130866666Y-99452381D02*
X131200000Y-98976190D01*
X131438095Y-99452381D02*
X131438095Y-98452381D01*
X131057142Y-98452381D01*
X130961904Y-98500000D01*
X130914285Y-98547619D01*
X130866666Y-98642857D01*
X130866666Y-98785714D01*
X130914285Y-98880952D01*
X130961904Y-98928571D01*
X131057142Y-98976190D01*
X131438095Y-98976190D01*
X130533333Y-98452381D02*
X129866666Y-98452381D01*
X130295238Y-99452381D01*
X114861905Y-96752381D02*
X114861905Y-97561905D01*
X114814286Y-97657143D01*
X114766667Y-97704762D01*
X114671429Y-97752381D01*
X114480952Y-97752381D01*
X114385714Y-97704762D01*
X114338095Y-97657143D01*
X114290476Y-97561905D01*
X114290476Y-96752381D01*
X113861905Y-96847619D02*
X113814286Y-96800000D01*
X113719048Y-96752381D01*
X113480952Y-96752381D01*
X113385714Y-96800000D01*
X113338095Y-96847619D01*
X113290476Y-96942857D01*
X113290476Y-97038095D01*
X113338095Y-97180952D01*
X113909524Y-97752381D01*
X113290476Y-97752381D01*
X131314286Y-89904762D02*
X131171429Y-89952381D01*
X130933333Y-89952381D01*
X130838095Y-89904762D01*
X130790476Y-89857143D01*
X130742857Y-89761905D01*
X130742857Y-89666667D01*
X130790476Y-89571429D01*
X130838095Y-89523810D01*
X130933333Y-89476190D01*
X131123810Y-89428571D01*
X131219048Y-89380952D01*
X131266667Y-89333333D01*
X131314286Y-89238095D01*
X131314286Y-89142857D01*
X131266667Y-89047619D01*
X131219048Y-89000000D01*
X131123810Y-88952381D01*
X130885714Y-88952381D01*
X130742857Y-89000000D01*
X130409524Y-89285714D02*
X130219048Y-89952381D01*
X130028571Y-89476190D01*
X129838095Y-89952381D01*
X129647619Y-89285714D01*
X129266667Y-89952381D02*
X129266667Y-89285714D01*
X129266667Y-88952381D02*
X129314286Y-89000000D01*
X129266667Y-89047619D01*
X129219048Y-89000000D01*
X129266667Y-88952381D01*
X129266667Y-89047619D01*
X128933334Y-89285714D02*
X128552382Y-89285714D01*
X128790477Y-88952381D02*
X128790477Y-89809524D01*
X128742858Y-89904762D01*
X128647620Y-89952381D01*
X128552382Y-89952381D01*
X127790476Y-89904762D02*
X127885714Y-89952381D01*
X128076191Y-89952381D01*
X128171429Y-89904762D01*
X128219048Y-89857143D01*
X128266667Y-89761905D01*
X128266667Y-89476190D01*
X128219048Y-89380952D01*
X128171429Y-89333333D01*
X128076191Y-89285714D01*
X127885714Y-89285714D01*
X127790476Y-89333333D01*
X127361905Y-89952381D02*
X127361905Y-88952381D01*
X126933333Y-89952381D02*
X126933333Y-89428571D01*
X126980952Y-89333333D01*
X127076190Y-89285714D01*
X127219048Y-89285714D01*
X127314286Y-89333333D01*
X127361905Y-89380952D01*
X112852381Y-72538095D02*
X113661905Y-72538095D01*
X113757143Y-72585714D01*
X113804762Y-72633333D01*
X113852381Y-72728571D01*
X113852381Y-72919048D01*
X113804762Y-73014286D01*
X113757143Y-73061905D01*
X113661905Y-73109524D01*
X112852381Y-73109524D01*
X112852381Y-74061905D02*
X112852381Y-73585714D01*
X113328571Y-73538095D01*
X113280952Y-73585714D01*
X113233333Y-73680952D01*
X113233333Y-73919048D01*
X113280952Y-74014286D01*
X113328571Y-74061905D01*
X113423810Y-74109524D01*
X113661905Y-74109524D01*
X113757143Y-74061905D01*
X113804762Y-74014286D01*
X113852381Y-73919048D01*
X113852381Y-73680952D01*
X113804762Y-73585714D01*
X113757143Y-73538095D01*
X131072381Y-75384905D02*
X130072381Y-75384905D01*
X130072381Y-75623000D01*
X130120000Y-75765858D01*
X130215238Y-75861096D01*
X130310476Y-75908715D01*
X130500952Y-75956334D01*
X130643810Y-75956334D01*
X130834286Y-75908715D01*
X130929524Y-75861096D01*
X131024762Y-75765858D01*
X131072381Y-75623000D01*
X131072381Y-75384905D01*
X131072381Y-76908715D02*
X131072381Y-76337286D01*
X131072381Y-76623000D02*
X130072381Y-76623000D01*
X130215238Y-76527762D01*
X130310476Y-76432524D01*
X130358095Y-76337286D01*
M02*
