G04 #@! TF.FileFunction,Soldermask,Bot*
%FSLAX46Y46*%
G04 Gerber Fmt 4.6, Leading zero omitted, Abs format (unit mm)*
G04 Created by KiCad (PCBNEW 4.0.3-stable) date 05/03/17 00:29:37*
%MOMM*%
%LPD*%
G01*
G04 APERTURE LIST*
%ADD10C,0.152400*%
%ADD11R,0.800000X0.750000*%
%ADD12C,2.600000*%
%ADD13R,0.750000X0.800000*%
%ADD14R,2.000000X1.900000*%
%ADD15C,1.900000*%
%ADD16C,1.700000*%
%ADD17R,1.000000X1.400000*%
%ADD18R,0.900000X0.500000*%
%ADD19R,0.500000X0.900000*%
%ADD20C,2.100000*%
%ADD21C,2.500000*%
%ADD22R,0.690000X0.990000*%
%ADD23C,2.000000*%
%ADD24R,3.000000X1.000000*%
%ADD25R,1.000000X3.000000*%
%ADD26R,0.450000X0.600000*%
%ADD27C,5.000000*%
G04 APERTURE END LIST*
D10*
D11*
X107050000Y-96700000D03*
X108550000Y-96700000D03*
D12*
X119600000Y-57600000D03*
X114600000Y-57600000D03*
X109600000Y-57600000D03*
D11*
X107050000Y-98400000D03*
X108550000Y-98400000D03*
X108550000Y-100100000D03*
X107050000Y-100100000D03*
X114350000Y-99800000D03*
X115850000Y-99800000D03*
D13*
X105537000Y-72529000D03*
X105537000Y-74029000D03*
D11*
X107454000Y-73914000D03*
X108954000Y-73914000D03*
X107454000Y-72390000D03*
X108954000Y-72390000D03*
D14*
X140462000Y-82296000D03*
D15*
X140462000Y-79756000D03*
D14*
X123700000Y-97900000D03*
D15*
X123700000Y-95360000D03*
D12*
X126000000Y-57600000D03*
X131000000Y-57600000D03*
X136000000Y-57600000D03*
D16*
X124333000Y-87122000D03*
X126873000Y-87122000D03*
X129413000Y-87122000D03*
X131953000Y-87122000D03*
X134493000Y-87122000D03*
X137033000Y-87122000D03*
D17*
X126746000Y-74422000D03*
X128646000Y-74422000D03*
X127696000Y-76622000D03*
D18*
X136652000Y-82792000D03*
X136652000Y-81292000D03*
D19*
X124448000Y-74549000D03*
X122948000Y-74549000D03*
X127650000Y-98900000D03*
X129150000Y-98900000D03*
D20*
X124658000Y-79121000D03*
X136708000Y-79121000D03*
D21*
X130683000Y-81171000D03*
X124658000Y-66921000D03*
X136708000Y-66921000D03*
D22*
X110400000Y-97200000D03*
X111350000Y-97200000D03*
X112300000Y-97200000D03*
X112300000Y-99790000D03*
X110400000Y-99790000D03*
D23*
X131826000Y-96647000D03*
X131826000Y-91347000D03*
D24*
X119499000Y-79708000D03*
X119499000Y-81708000D03*
X119499000Y-83708000D03*
X119499000Y-85708000D03*
X119499000Y-87708000D03*
X119499000Y-89708000D03*
D25*
X117499000Y-92708000D03*
X115499000Y-92708000D03*
X113499000Y-92708000D03*
X111499000Y-92708000D03*
X109499000Y-92708000D03*
X107499000Y-92708000D03*
X105499000Y-92708000D03*
X103499000Y-92708000D03*
X117499000Y-76708000D03*
X115499000Y-76708000D03*
X113499000Y-76708000D03*
X111499000Y-76708000D03*
X109499000Y-76708000D03*
X107499000Y-76708000D03*
X105499000Y-76708000D03*
X103499000Y-76708000D03*
D23*
X135300000Y-96700000D03*
D15*
X135300000Y-94160000D03*
D21*
X114400000Y-67900000D03*
X109400000Y-67900000D03*
X119600000Y-97300000D03*
X104200000Y-97300000D03*
D26*
X132080000Y-73973000D03*
X132080000Y-76073000D03*
D27*
X104300000Y-54200000D03*
X141300000Y-54300000D03*
M02*
