G04 #@! TF.FileFunction,Copper,L2,Bot,Signal*
%FSLAX46Y46*%
G04 Gerber Fmt 4.6, Leading zero omitted, Abs format (unit mm)*
G04 Created by KiCad (PCBNEW 4.0.3-stable) date 05/03/17 00:29:37*
%MOMM*%
%LPD*%
G01*
G04 APERTURE LIST*
%ADD10C,0.152400*%
%ADD11R,0.800000X0.750000*%
%ADD12C,2.600000*%
%ADD13R,0.750000X0.800000*%
%ADD14R,2.000000X1.900000*%
%ADD15C,1.900000*%
%ADD16C,1.700000*%
%ADD17R,1.000000X1.400000*%
%ADD18R,0.900000X0.500000*%
%ADD19R,0.500000X0.900000*%
%ADD20C,2.100000*%
%ADD21C,2.500000*%
%ADD22R,0.690000X0.990000*%
%ADD23C,2.000000*%
%ADD24R,3.000000X1.000000*%
%ADD25R,1.000000X3.000000*%
%ADD26R,0.450000X0.600000*%
%ADD27C,5.000000*%
%ADD28C,0.600000*%
%ADD29C,0.500000*%
%ADD30C,0.250000*%
%ADD31C,0.400000*%
%ADD32C,0.254000*%
G04 APERTURE END LIST*
D10*
D11*
X107050000Y-96700000D03*
X108550000Y-96700000D03*
D12*
X119600000Y-57600000D03*
X114600000Y-57600000D03*
X109600000Y-57600000D03*
D11*
X107050000Y-98400000D03*
X108550000Y-98400000D03*
X108550000Y-100100000D03*
X107050000Y-100100000D03*
X114350000Y-99800000D03*
X115850000Y-99800000D03*
D13*
X105537000Y-72529000D03*
X105537000Y-74029000D03*
D11*
X107454000Y-73914000D03*
X108954000Y-73914000D03*
X107454000Y-72390000D03*
X108954000Y-72390000D03*
D14*
X140462000Y-82296000D03*
D15*
X140462000Y-79756000D03*
D14*
X123700000Y-97900000D03*
D15*
X123700000Y-95360000D03*
D12*
X126000000Y-57600000D03*
X131000000Y-57600000D03*
X136000000Y-57600000D03*
D16*
X124333000Y-87122000D03*
X126873000Y-87122000D03*
X129413000Y-87122000D03*
X131953000Y-87122000D03*
X134493000Y-87122000D03*
X137033000Y-87122000D03*
D17*
X126746000Y-74422000D03*
X128646000Y-74422000D03*
X127696000Y-76622000D03*
D18*
X136652000Y-82792000D03*
X136652000Y-81292000D03*
D19*
X124448000Y-74549000D03*
X122948000Y-74549000D03*
X127650000Y-98900000D03*
X129150000Y-98900000D03*
D20*
X124658000Y-79121000D03*
X136708000Y-79121000D03*
D21*
X130683000Y-81171000D03*
X124658000Y-66921000D03*
X136708000Y-66921000D03*
D22*
X110400000Y-97200000D03*
X111350000Y-97200000D03*
X112300000Y-97200000D03*
X112300000Y-99790000D03*
X110400000Y-99790000D03*
D23*
X131826000Y-96647000D03*
X131826000Y-91347000D03*
D24*
X119499000Y-79708000D03*
X119499000Y-81708000D03*
X119499000Y-83708000D03*
X119499000Y-85708000D03*
X119499000Y-87708000D03*
X119499000Y-89708000D03*
D25*
X117499000Y-92708000D03*
X115499000Y-92708000D03*
X113499000Y-92708000D03*
X111499000Y-92708000D03*
X109499000Y-92708000D03*
X107499000Y-92708000D03*
X105499000Y-92708000D03*
X103499000Y-92708000D03*
X117499000Y-76708000D03*
X115499000Y-76708000D03*
X113499000Y-76708000D03*
X111499000Y-76708000D03*
X109499000Y-76708000D03*
X107499000Y-76708000D03*
X105499000Y-76708000D03*
X103499000Y-76708000D03*
D23*
X135300000Y-96700000D03*
D15*
X135300000Y-94160000D03*
D21*
X114400000Y-67900000D03*
X109400000Y-67900000D03*
X119600000Y-97300000D03*
X104200000Y-97300000D03*
D26*
X132080000Y-73973000D03*
X132080000Y-76073000D03*
D27*
X104300000Y-54200000D03*
X141300000Y-54300000D03*
D28*
X111100000Y-72400000D03*
X138600000Y-99800000D03*
X140300000Y-92600000D03*
X115900000Y-97400000D03*
X104900000Y-100100000D03*
X108600000Y-98400000D03*
X125900000Y-92000000D03*
X107300000Y-89500000D03*
X108550000Y-100100000D03*
X105537000Y-74029000D03*
X109500000Y-89800000D03*
X105500000Y-87300000D03*
X103400000Y-86000000D03*
X116200000Y-88600000D03*
D29*
X140462000Y-79756000D02*
X142367000Y-79756000D01*
X142367000Y-84455000D02*
X129992000Y-84455000D01*
X129992000Y-84455000D02*
X124658000Y-79121000D01*
X143383000Y-83439000D02*
X142367000Y-84455000D01*
X143383000Y-80772000D02*
X143383000Y-83439000D01*
X142367000Y-79756000D02*
X143383000Y-80772000D01*
X107050000Y-98400000D02*
X107050000Y-96700000D01*
X107050000Y-96700000D02*
X107050000Y-95750000D01*
X107300000Y-95500000D02*
X110800000Y-95500000D01*
X107050000Y-95750000D02*
X107300000Y-95500000D01*
X107050000Y-96700000D02*
X104800000Y-96700000D01*
X104800000Y-96700000D02*
X104200000Y-97300000D01*
X111850000Y-95550000D02*
X118250000Y-95550000D01*
X122400000Y-81100000D02*
X122400000Y-91600000D01*
X124379000Y-79121000D02*
X122400000Y-81100000D01*
X118250000Y-95550000D02*
X122400000Y-91500000D01*
X122400000Y-91500000D02*
X122300000Y-91600000D01*
X122300000Y-91600000D02*
X122400000Y-91600000D01*
X124658000Y-79121000D02*
X124379000Y-79121000D01*
X110400000Y-97200000D02*
X110400000Y-95900000D01*
X110400000Y-95900000D02*
X110800000Y-95500000D01*
X112300000Y-96000000D02*
X112300000Y-97200000D01*
X111800000Y-95500000D02*
X111850000Y-95550000D01*
X110800000Y-95500000D02*
X111800000Y-95500000D01*
X111850000Y-95550000D02*
X112300000Y-96000000D01*
X104200000Y-97300000D02*
X104200000Y-97200000D01*
X124658000Y-79121000D02*
X129032000Y-79121000D01*
X129032000Y-79121000D02*
X132080000Y-76073000D01*
D30*
X140970000Y-79756000D02*
X140462000Y-79756000D01*
X111100000Y-72400000D02*
X126624000Y-72400000D01*
X111090000Y-72390000D02*
X111100000Y-72400000D01*
X108954000Y-72390000D02*
X111090000Y-72390000D01*
X126624000Y-72400000D02*
X128646000Y-74422000D01*
X131826000Y-96647000D02*
X131826000Y-98326000D01*
X138500000Y-99900000D02*
X138600000Y-99800000D01*
X133200000Y-99700000D02*
X138500000Y-99900000D01*
X131826000Y-98326000D02*
X133200000Y-99700000D01*
X135300000Y-94260000D02*
X138640000Y-94260000D01*
X138640000Y-94260000D02*
X140300000Y-92600000D01*
X108550000Y-98400000D02*
X111500000Y-98400000D01*
X111500000Y-98400000D02*
X111600000Y-98500000D01*
X108550000Y-98400000D02*
X108550000Y-98600000D01*
X108550000Y-98600000D02*
X107050000Y-100100000D01*
X115900000Y-97400000D02*
X119500000Y-97400000D01*
X111600000Y-98500000D02*
X114800000Y-98500000D01*
X114800000Y-98500000D02*
X115900000Y-97400000D01*
X119500000Y-97400000D02*
X119600000Y-97300000D01*
X108550000Y-98400000D02*
X108550000Y-96700000D01*
X111350000Y-97200000D02*
X111350000Y-98250000D01*
X111350000Y-98250000D02*
X111600000Y-98500000D01*
X115850000Y-97450000D02*
X115900000Y-97400000D01*
X115850000Y-97450000D02*
X115850000Y-99800000D01*
X107050000Y-100100000D02*
X104900000Y-100100000D01*
X108600000Y-98400000D02*
X108550000Y-98400000D01*
X108954000Y-73914000D02*
X108954000Y-72390000D01*
D31*
X107300000Y-89500000D02*
X107499000Y-89301000D01*
X107499000Y-76708000D02*
X107499000Y-89301000D01*
X110400000Y-99790000D02*
X110400000Y-100100000D01*
X110400000Y-99790000D02*
X108860000Y-99790000D01*
X107499000Y-76708000D02*
X107499000Y-78289000D01*
X107499000Y-78289000D02*
X109474000Y-80264000D01*
X109474000Y-80264000D02*
X109500000Y-80264000D01*
X117499000Y-78462000D02*
X117499000Y-76708000D01*
X114700000Y-80264000D02*
X115697000Y-80264000D01*
X109500000Y-80264000D02*
X114700000Y-80264000D01*
X115697000Y-80264000D02*
X117499000Y-78462000D01*
X107454000Y-73914000D02*
X107454000Y-76663000D01*
X107454000Y-76663000D02*
X107499000Y-76708000D01*
X107454000Y-73914000D02*
X107454000Y-72390000D01*
D30*
X107499000Y-73959000D02*
X107454000Y-73914000D01*
X105499000Y-76708000D02*
X105499000Y-75527000D01*
X105499000Y-75527000D02*
X104013000Y-74041000D01*
X104013000Y-74041000D02*
X104013000Y-73152000D01*
X104013000Y-73152000D02*
X104636000Y-72529000D01*
X104636000Y-72529000D02*
X105537000Y-72529000D01*
X105537000Y-74063000D02*
X105537000Y-74029000D01*
X132080000Y-73973000D02*
X134573000Y-73973000D01*
X136708000Y-76108000D02*
X136708000Y-79121000D01*
X134573000Y-73973000D02*
X136708000Y-76108000D01*
X127696000Y-76622000D02*
X129431000Y-76622000D01*
X129431000Y-76622000D02*
X132080000Y-73973000D01*
X136708000Y-79121000D02*
X136708000Y-81236000D01*
X136708000Y-81236000D02*
X136652000Y-81292000D01*
X136708000Y-78923000D02*
X136708000Y-79121000D01*
X135890000Y-79121000D02*
X136708000Y-79121000D01*
X136652000Y-82792000D02*
X139966000Y-82792000D01*
X139966000Y-82792000D02*
X140462000Y-82296000D01*
X123700000Y-97900000D02*
X126650000Y-97900000D01*
X126650000Y-97900000D02*
X127650000Y-98900000D01*
X109499000Y-92708000D02*
X109499000Y-89801000D01*
X109499000Y-89801000D02*
X109500000Y-89800000D01*
X105499000Y-87301000D02*
X105499000Y-92708000D01*
X105500000Y-87300000D02*
X105499000Y-87301000D01*
X105537000Y-92710000D02*
X105535000Y-92708000D01*
X105535000Y-92708000D02*
X105499000Y-92708000D01*
X103499000Y-86099000D02*
X103499000Y-92708000D01*
X103400000Y-86000000D02*
X103499000Y-86099000D01*
X124448000Y-74549000D02*
X126619000Y-74549000D01*
X126619000Y-74549000D02*
X126746000Y-74422000D01*
X111499000Y-90401000D02*
X111499000Y-92708000D01*
X112300000Y-89600000D02*
X111499000Y-90401000D01*
X115500000Y-89600000D02*
X112300000Y-89600000D01*
X116200000Y-88600000D02*
X115500000Y-89600000D01*
X115499000Y-76708000D02*
X115499000Y-75509000D01*
X115499000Y-75509000D02*
X116459000Y-74549000D01*
X116459000Y-74549000D02*
X122948000Y-74549000D01*
X112300000Y-99790000D02*
X114340000Y-99790000D01*
X114340000Y-99790000D02*
X114350000Y-99800000D01*
D32*
G36*
X129366208Y-85080787D02*
X129366210Y-85080790D01*
X129604486Y-85240000D01*
X129653325Y-85272633D01*
X129992000Y-85340001D01*
X129992005Y-85340000D01*
X142366995Y-85340000D01*
X142367000Y-85340001D01*
X142649484Y-85283810D01*
X142705675Y-85272633D01*
X142992790Y-85080790D01*
X142992791Y-85080789D01*
X143615000Y-84458579D01*
X143615000Y-100873000D01*
X112903879Y-100873000D01*
X113096441Y-100749090D01*
X113232473Y-100550000D01*
X113436722Y-100550000D01*
X113485910Y-100626441D01*
X113698110Y-100771431D01*
X113950000Y-100822440D01*
X114750000Y-100822440D01*
X114985317Y-100778162D01*
X115088646Y-100711671D01*
X115090302Y-100713327D01*
X115323691Y-100810000D01*
X115564250Y-100810000D01*
X115723000Y-100651250D01*
X115723000Y-99927000D01*
X115977000Y-99927000D01*
X115977000Y-100651250D01*
X116135750Y-100810000D01*
X116376309Y-100810000D01*
X116609698Y-100713327D01*
X116788327Y-100534699D01*
X116885000Y-100301310D01*
X116885000Y-100085750D01*
X116726250Y-99927000D01*
X115977000Y-99927000D01*
X115723000Y-99927000D01*
X115703000Y-99927000D01*
X115703000Y-99673000D01*
X115723000Y-99673000D01*
X115723000Y-98948750D01*
X115977000Y-98948750D01*
X115977000Y-99673000D01*
X116726250Y-99673000D01*
X116885000Y-99514250D01*
X116885000Y-99298690D01*
X116788327Y-99065301D01*
X116609698Y-98886673D01*
X116376309Y-98790000D01*
X116135750Y-98790000D01*
X115977000Y-98948750D01*
X115723000Y-98948750D01*
X115564250Y-98790000D01*
X115323691Y-98790000D01*
X115090302Y-98886673D01*
X115088932Y-98888043D01*
X115001890Y-98828569D01*
X114750000Y-98777560D01*
X113950000Y-98777560D01*
X113714683Y-98821838D01*
X113498559Y-98960910D01*
X113451352Y-99030000D01*
X113229062Y-99030000D01*
X113109090Y-98843559D01*
X112896890Y-98698569D01*
X112645000Y-98647560D01*
X111955000Y-98647560D01*
X111719683Y-98691838D01*
X111503559Y-98830910D01*
X111358569Y-99043110D01*
X111351558Y-99077731D01*
X111348162Y-99059683D01*
X111209090Y-98843559D01*
X110996890Y-98698569D01*
X110745000Y-98647560D01*
X110055000Y-98647560D01*
X109819683Y-98691838D01*
X109603559Y-98830910D01*
X109585000Y-98858072D01*
X109585000Y-98685750D01*
X109532570Y-98633320D01*
X118446285Y-98633320D01*
X118575533Y-98926123D01*
X119275806Y-99194388D01*
X120025435Y-99174250D01*
X120624467Y-98926123D01*
X120753715Y-98633320D01*
X119600000Y-97479605D01*
X118446285Y-98633320D01*
X109532570Y-98633320D01*
X109426250Y-98527000D01*
X108677000Y-98527000D01*
X108677000Y-98547000D01*
X108423000Y-98547000D01*
X108423000Y-98527000D01*
X108403000Y-98527000D01*
X108403000Y-98273000D01*
X108423000Y-98273000D01*
X108423000Y-96827000D01*
X108403000Y-96827000D01*
X108403000Y-96573000D01*
X108423000Y-96573000D01*
X108423000Y-96553000D01*
X108677000Y-96553000D01*
X108677000Y-96573000D01*
X108697000Y-96573000D01*
X108697000Y-96827000D01*
X108677000Y-96827000D01*
X108677000Y-98273000D01*
X109426250Y-98273000D01*
X109575992Y-98123258D01*
X109590910Y-98146441D01*
X109803110Y-98291431D01*
X110055000Y-98342440D01*
X110745000Y-98342440D01*
X110857582Y-98321256D01*
X110878691Y-98330000D01*
X111064250Y-98330000D01*
X111223000Y-98171250D01*
X111223000Y-98120220D01*
X111341431Y-97946890D01*
X111348442Y-97912269D01*
X111351838Y-97930317D01*
X111477000Y-98124824D01*
X111477000Y-98171250D01*
X111635750Y-98330000D01*
X111821309Y-98330000D01*
X111845036Y-98320172D01*
X111955000Y-98342440D01*
X112645000Y-98342440D01*
X112880317Y-98298162D01*
X113096441Y-98159090D01*
X113241431Y-97946890D01*
X113292440Y-97695000D01*
X113292440Y-96705000D01*
X113248162Y-96469683D01*
X113225844Y-96435000D01*
X117912787Y-96435000D01*
X117705612Y-96975806D01*
X117725750Y-97725435D01*
X117973877Y-98324467D01*
X118266680Y-98453715D01*
X119420395Y-97300000D01*
X119779605Y-97300000D01*
X120933320Y-98453715D01*
X121226123Y-98324467D01*
X121494388Y-97624194D01*
X121476277Y-96950000D01*
X122052560Y-96950000D01*
X122052560Y-98850000D01*
X122096838Y-99085317D01*
X122235910Y-99301441D01*
X122448110Y-99446431D01*
X122700000Y-99497440D01*
X124700000Y-99497440D01*
X124935317Y-99453162D01*
X125151441Y-99314090D01*
X125296431Y-99101890D01*
X125347440Y-98850000D01*
X125347440Y-98660000D01*
X126335198Y-98660000D01*
X126752560Y-99077362D01*
X126752560Y-99350000D01*
X126796838Y-99585317D01*
X126935910Y-99801441D01*
X127148110Y-99946431D01*
X127400000Y-99997440D01*
X127900000Y-99997440D01*
X128135317Y-99953162D01*
X128351441Y-99814090D01*
X128397969Y-99745994D01*
X128540302Y-99888327D01*
X128773691Y-99985000D01*
X128866250Y-99985000D01*
X129025000Y-99826250D01*
X129025000Y-99027000D01*
X129275000Y-99027000D01*
X129275000Y-99826250D01*
X129433750Y-99985000D01*
X129526309Y-99985000D01*
X129759698Y-99888327D01*
X129938327Y-99709699D01*
X130035000Y-99476310D01*
X130035000Y-99185750D01*
X129876250Y-99027000D01*
X129275000Y-99027000D01*
X129025000Y-99027000D01*
X129003000Y-99027000D01*
X129003000Y-98773000D01*
X129025000Y-98773000D01*
X129025000Y-97973750D01*
X129275000Y-97973750D01*
X129275000Y-98773000D01*
X129876250Y-98773000D01*
X130035000Y-98614250D01*
X130035000Y-98323690D01*
X129938327Y-98090301D01*
X129759698Y-97911673D01*
X129526309Y-97815000D01*
X129433750Y-97815000D01*
X129275000Y-97973750D01*
X129025000Y-97973750D01*
X128866250Y-97815000D01*
X128773691Y-97815000D01*
X128540302Y-97911673D01*
X128399064Y-98052910D01*
X128364090Y-97998559D01*
X128151890Y-97853569D01*
X127900000Y-97802560D01*
X127627362Y-97802560D01*
X127624334Y-97799532D01*
X130853073Y-97799532D01*
X130951736Y-98066387D01*
X131561461Y-98292908D01*
X132211460Y-98268856D01*
X132700264Y-98066387D01*
X132798927Y-97799532D01*
X131826000Y-96826605D01*
X130853073Y-97799532D01*
X127624334Y-97799532D01*
X127187401Y-97362599D01*
X126940839Y-97197852D01*
X126650000Y-97140000D01*
X125347440Y-97140000D01*
X125347440Y-96950000D01*
X125303162Y-96714683D01*
X125164090Y-96498559D01*
X124994175Y-96382461D01*
X130180092Y-96382461D01*
X130204144Y-97032460D01*
X130406613Y-97521264D01*
X130673468Y-97619927D01*
X131646395Y-96647000D01*
X132005605Y-96647000D01*
X132978532Y-97619927D01*
X133245387Y-97521264D01*
X133430203Y-97023795D01*
X133664716Y-97023795D01*
X133913106Y-97624943D01*
X134372637Y-98085278D01*
X134973352Y-98334716D01*
X135623795Y-98335284D01*
X136224943Y-98086894D01*
X136685278Y-97627363D01*
X136934716Y-97026648D01*
X136935284Y-96376205D01*
X136686894Y-95775057D01*
X136227363Y-95314722D01*
X136223711Y-95313206D01*
X136236745Y-95276350D01*
X135300000Y-94339605D01*
X134363255Y-95276350D01*
X134376101Y-95312675D01*
X134375057Y-95313106D01*
X133914722Y-95772637D01*
X133665284Y-96373352D01*
X133664716Y-97023795D01*
X133430203Y-97023795D01*
X133471908Y-96911539D01*
X133447856Y-96261540D01*
X133245387Y-95772736D01*
X132978532Y-95674073D01*
X132005605Y-96647000D01*
X131646395Y-96647000D01*
X130673468Y-95674073D01*
X130406613Y-95772736D01*
X130180092Y-96382461D01*
X124994175Y-96382461D01*
X124951890Y-96353569D01*
X124948808Y-96352945D01*
X125042914Y-96259003D01*
X125284724Y-95676659D01*
X125284883Y-95494468D01*
X130853073Y-95494468D01*
X131826000Y-96467395D01*
X132798927Y-95494468D01*
X132700264Y-95227613D01*
X132090539Y-95001092D01*
X131440540Y-95025144D01*
X130951736Y-95227613D01*
X130853073Y-95494468D01*
X125284883Y-95494468D01*
X125285275Y-95046107D01*
X125044481Y-94463343D01*
X124599003Y-94017086D01*
X124334845Y-93907398D01*
X133703812Y-93907398D01*
X133728648Y-94537461D01*
X133921981Y-95004208D01*
X134183650Y-95096745D01*
X135120395Y-94160000D01*
X135479605Y-94160000D01*
X136416350Y-95096745D01*
X136678019Y-95004208D01*
X136896188Y-94412602D01*
X136871352Y-93782539D01*
X136678019Y-93315792D01*
X136416350Y-93223255D01*
X135479605Y-94160000D01*
X135120395Y-94160000D01*
X134183650Y-93223255D01*
X133921981Y-93315792D01*
X133703812Y-93907398D01*
X124334845Y-93907398D01*
X124016659Y-93775276D01*
X123386107Y-93774725D01*
X122803343Y-94015519D01*
X122357086Y-94460997D01*
X122115276Y-95043341D01*
X122114725Y-95673893D01*
X122355519Y-96256657D01*
X122453029Y-96354337D01*
X122248559Y-96485910D01*
X122103569Y-96698110D01*
X122052560Y-96950000D01*
X121476277Y-96950000D01*
X121474250Y-96874565D01*
X121226123Y-96275533D01*
X120933320Y-96146285D01*
X119779605Y-97300000D01*
X119420395Y-97300000D01*
X119406253Y-97285858D01*
X119585858Y-97106253D01*
X119600000Y-97120395D01*
X120753715Y-95966680D01*
X120624467Y-95673877D01*
X119924194Y-95405612D01*
X119657743Y-95412770D01*
X122085359Y-93043650D01*
X134363255Y-93043650D01*
X135300000Y-93980395D01*
X136236745Y-93043650D01*
X136144208Y-92781981D01*
X135552602Y-92563812D01*
X134922539Y-92588648D01*
X134455792Y-92781981D01*
X134363255Y-93043650D01*
X122085359Y-93043650D01*
X122723803Y-92420591D01*
X122738675Y-92417633D01*
X123025790Y-92225790D01*
X123217633Y-91938675D01*
X123270917Y-91670795D01*
X130190716Y-91670795D01*
X130439106Y-92271943D01*
X130898637Y-92732278D01*
X131499352Y-92981716D01*
X132149795Y-92982284D01*
X132750943Y-92733894D01*
X133211278Y-92274363D01*
X133460716Y-91673648D01*
X133461284Y-91023205D01*
X133212894Y-90422057D01*
X132753363Y-89961722D01*
X132152648Y-89712284D01*
X131502205Y-89711716D01*
X130901057Y-89960106D01*
X130440722Y-90419637D01*
X130191284Y-91020352D01*
X130190716Y-91670795D01*
X123270917Y-91670795D01*
X123285000Y-91600000D01*
X123285000Y-88211732D01*
X123353938Y-88280670D01*
X123468648Y-88165960D01*
X123548920Y-88417259D01*
X124104279Y-88618718D01*
X124694458Y-88592315D01*
X125117080Y-88417259D01*
X125197353Y-88165958D01*
X124333000Y-87301605D01*
X124318858Y-87315748D01*
X124139253Y-87136143D01*
X124153395Y-87122000D01*
X124512605Y-87122000D01*
X125376958Y-87986353D01*
X125594640Y-87916819D01*
X125613344Y-87962086D01*
X126030717Y-88380188D01*
X126576319Y-88606742D01*
X127167089Y-88607257D01*
X127713086Y-88381656D01*
X128131188Y-87964283D01*
X128142748Y-87936443D01*
X128153344Y-87962086D01*
X128570717Y-88380188D01*
X129116319Y-88606742D01*
X129707089Y-88607257D01*
X130253086Y-88381656D01*
X130671188Y-87964283D01*
X130682748Y-87936443D01*
X130693344Y-87962086D01*
X131110717Y-88380188D01*
X131656319Y-88606742D01*
X132247089Y-88607257D01*
X132793086Y-88381656D01*
X133211188Y-87964283D01*
X133222748Y-87936443D01*
X133233344Y-87962086D01*
X133650717Y-88380188D01*
X134196319Y-88606742D01*
X134787089Y-88607257D01*
X135333086Y-88381656D01*
X135751188Y-87964283D01*
X135762748Y-87936443D01*
X135773344Y-87962086D01*
X136190717Y-88380188D01*
X136736319Y-88606742D01*
X137327089Y-88607257D01*
X137873086Y-88381656D01*
X138291188Y-87964283D01*
X138517742Y-87418681D01*
X138518257Y-86827911D01*
X138292656Y-86281914D01*
X137875283Y-85863812D01*
X137329681Y-85637258D01*
X136738911Y-85636743D01*
X136192914Y-85862344D01*
X135774812Y-86279717D01*
X135763252Y-86307557D01*
X135752656Y-86281914D01*
X135335283Y-85863812D01*
X134789681Y-85637258D01*
X134198911Y-85636743D01*
X133652914Y-85862344D01*
X133234812Y-86279717D01*
X133223252Y-86307557D01*
X133212656Y-86281914D01*
X132795283Y-85863812D01*
X132249681Y-85637258D01*
X131658911Y-85636743D01*
X131112914Y-85862344D01*
X130694812Y-86279717D01*
X130683252Y-86307557D01*
X130672656Y-86281914D01*
X130255283Y-85863812D01*
X129709681Y-85637258D01*
X129118911Y-85636743D01*
X128572914Y-85862344D01*
X128154812Y-86279717D01*
X128143252Y-86307557D01*
X128132656Y-86281914D01*
X127715283Y-85863812D01*
X127169681Y-85637258D01*
X126578911Y-85636743D01*
X126032914Y-85862344D01*
X125614812Y-86279717D01*
X125595049Y-86327312D01*
X125376958Y-86257647D01*
X124512605Y-87122000D01*
X124153395Y-87122000D01*
X124139253Y-87107858D01*
X124318858Y-86928253D01*
X124333000Y-86942395D01*
X125197353Y-86078042D01*
X125117080Y-85826741D01*
X124561721Y-85625282D01*
X123971542Y-85651685D01*
X123548920Y-85826741D01*
X123468648Y-86078040D01*
X123353938Y-85963330D01*
X123285000Y-86032268D01*
X123285000Y-84459825D01*
X128580781Y-84295360D01*
X129366208Y-85080787D01*
X129366208Y-85080787D01*
G37*
X129366208Y-85080787D02*
X129366210Y-85080790D01*
X129604486Y-85240000D01*
X129653325Y-85272633D01*
X129992000Y-85340001D01*
X129992005Y-85340000D01*
X142366995Y-85340000D01*
X142367000Y-85340001D01*
X142649484Y-85283810D01*
X142705675Y-85272633D01*
X142992790Y-85080790D01*
X142992791Y-85080789D01*
X143615000Y-84458579D01*
X143615000Y-100873000D01*
X112903879Y-100873000D01*
X113096441Y-100749090D01*
X113232473Y-100550000D01*
X113436722Y-100550000D01*
X113485910Y-100626441D01*
X113698110Y-100771431D01*
X113950000Y-100822440D01*
X114750000Y-100822440D01*
X114985317Y-100778162D01*
X115088646Y-100711671D01*
X115090302Y-100713327D01*
X115323691Y-100810000D01*
X115564250Y-100810000D01*
X115723000Y-100651250D01*
X115723000Y-99927000D01*
X115977000Y-99927000D01*
X115977000Y-100651250D01*
X116135750Y-100810000D01*
X116376309Y-100810000D01*
X116609698Y-100713327D01*
X116788327Y-100534699D01*
X116885000Y-100301310D01*
X116885000Y-100085750D01*
X116726250Y-99927000D01*
X115977000Y-99927000D01*
X115723000Y-99927000D01*
X115703000Y-99927000D01*
X115703000Y-99673000D01*
X115723000Y-99673000D01*
X115723000Y-98948750D01*
X115977000Y-98948750D01*
X115977000Y-99673000D01*
X116726250Y-99673000D01*
X116885000Y-99514250D01*
X116885000Y-99298690D01*
X116788327Y-99065301D01*
X116609698Y-98886673D01*
X116376309Y-98790000D01*
X116135750Y-98790000D01*
X115977000Y-98948750D01*
X115723000Y-98948750D01*
X115564250Y-98790000D01*
X115323691Y-98790000D01*
X115090302Y-98886673D01*
X115088932Y-98888043D01*
X115001890Y-98828569D01*
X114750000Y-98777560D01*
X113950000Y-98777560D01*
X113714683Y-98821838D01*
X113498559Y-98960910D01*
X113451352Y-99030000D01*
X113229062Y-99030000D01*
X113109090Y-98843559D01*
X112896890Y-98698569D01*
X112645000Y-98647560D01*
X111955000Y-98647560D01*
X111719683Y-98691838D01*
X111503559Y-98830910D01*
X111358569Y-99043110D01*
X111351558Y-99077731D01*
X111348162Y-99059683D01*
X111209090Y-98843559D01*
X110996890Y-98698569D01*
X110745000Y-98647560D01*
X110055000Y-98647560D01*
X109819683Y-98691838D01*
X109603559Y-98830910D01*
X109585000Y-98858072D01*
X109585000Y-98685750D01*
X109532570Y-98633320D01*
X118446285Y-98633320D01*
X118575533Y-98926123D01*
X119275806Y-99194388D01*
X120025435Y-99174250D01*
X120624467Y-98926123D01*
X120753715Y-98633320D01*
X119600000Y-97479605D01*
X118446285Y-98633320D01*
X109532570Y-98633320D01*
X109426250Y-98527000D01*
X108677000Y-98527000D01*
X108677000Y-98547000D01*
X108423000Y-98547000D01*
X108423000Y-98527000D01*
X108403000Y-98527000D01*
X108403000Y-98273000D01*
X108423000Y-98273000D01*
X108423000Y-96827000D01*
X108403000Y-96827000D01*
X108403000Y-96573000D01*
X108423000Y-96573000D01*
X108423000Y-96553000D01*
X108677000Y-96553000D01*
X108677000Y-96573000D01*
X108697000Y-96573000D01*
X108697000Y-96827000D01*
X108677000Y-96827000D01*
X108677000Y-98273000D01*
X109426250Y-98273000D01*
X109575992Y-98123258D01*
X109590910Y-98146441D01*
X109803110Y-98291431D01*
X110055000Y-98342440D01*
X110745000Y-98342440D01*
X110857582Y-98321256D01*
X110878691Y-98330000D01*
X111064250Y-98330000D01*
X111223000Y-98171250D01*
X111223000Y-98120220D01*
X111341431Y-97946890D01*
X111348442Y-97912269D01*
X111351838Y-97930317D01*
X111477000Y-98124824D01*
X111477000Y-98171250D01*
X111635750Y-98330000D01*
X111821309Y-98330000D01*
X111845036Y-98320172D01*
X111955000Y-98342440D01*
X112645000Y-98342440D01*
X112880317Y-98298162D01*
X113096441Y-98159090D01*
X113241431Y-97946890D01*
X113292440Y-97695000D01*
X113292440Y-96705000D01*
X113248162Y-96469683D01*
X113225844Y-96435000D01*
X117912787Y-96435000D01*
X117705612Y-96975806D01*
X117725750Y-97725435D01*
X117973877Y-98324467D01*
X118266680Y-98453715D01*
X119420395Y-97300000D01*
X119779605Y-97300000D01*
X120933320Y-98453715D01*
X121226123Y-98324467D01*
X121494388Y-97624194D01*
X121476277Y-96950000D01*
X122052560Y-96950000D01*
X122052560Y-98850000D01*
X122096838Y-99085317D01*
X122235910Y-99301441D01*
X122448110Y-99446431D01*
X122700000Y-99497440D01*
X124700000Y-99497440D01*
X124935317Y-99453162D01*
X125151441Y-99314090D01*
X125296431Y-99101890D01*
X125347440Y-98850000D01*
X125347440Y-98660000D01*
X126335198Y-98660000D01*
X126752560Y-99077362D01*
X126752560Y-99350000D01*
X126796838Y-99585317D01*
X126935910Y-99801441D01*
X127148110Y-99946431D01*
X127400000Y-99997440D01*
X127900000Y-99997440D01*
X128135317Y-99953162D01*
X128351441Y-99814090D01*
X128397969Y-99745994D01*
X128540302Y-99888327D01*
X128773691Y-99985000D01*
X128866250Y-99985000D01*
X129025000Y-99826250D01*
X129025000Y-99027000D01*
X129275000Y-99027000D01*
X129275000Y-99826250D01*
X129433750Y-99985000D01*
X129526309Y-99985000D01*
X129759698Y-99888327D01*
X129938327Y-99709699D01*
X130035000Y-99476310D01*
X130035000Y-99185750D01*
X129876250Y-99027000D01*
X129275000Y-99027000D01*
X129025000Y-99027000D01*
X129003000Y-99027000D01*
X129003000Y-98773000D01*
X129025000Y-98773000D01*
X129025000Y-97973750D01*
X129275000Y-97973750D01*
X129275000Y-98773000D01*
X129876250Y-98773000D01*
X130035000Y-98614250D01*
X130035000Y-98323690D01*
X129938327Y-98090301D01*
X129759698Y-97911673D01*
X129526309Y-97815000D01*
X129433750Y-97815000D01*
X129275000Y-97973750D01*
X129025000Y-97973750D01*
X128866250Y-97815000D01*
X128773691Y-97815000D01*
X128540302Y-97911673D01*
X128399064Y-98052910D01*
X128364090Y-97998559D01*
X128151890Y-97853569D01*
X127900000Y-97802560D01*
X127627362Y-97802560D01*
X127624334Y-97799532D01*
X130853073Y-97799532D01*
X130951736Y-98066387D01*
X131561461Y-98292908D01*
X132211460Y-98268856D01*
X132700264Y-98066387D01*
X132798927Y-97799532D01*
X131826000Y-96826605D01*
X130853073Y-97799532D01*
X127624334Y-97799532D01*
X127187401Y-97362599D01*
X126940839Y-97197852D01*
X126650000Y-97140000D01*
X125347440Y-97140000D01*
X125347440Y-96950000D01*
X125303162Y-96714683D01*
X125164090Y-96498559D01*
X124994175Y-96382461D01*
X130180092Y-96382461D01*
X130204144Y-97032460D01*
X130406613Y-97521264D01*
X130673468Y-97619927D01*
X131646395Y-96647000D01*
X132005605Y-96647000D01*
X132978532Y-97619927D01*
X133245387Y-97521264D01*
X133430203Y-97023795D01*
X133664716Y-97023795D01*
X133913106Y-97624943D01*
X134372637Y-98085278D01*
X134973352Y-98334716D01*
X135623795Y-98335284D01*
X136224943Y-98086894D01*
X136685278Y-97627363D01*
X136934716Y-97026648D01*
X136935284Y-96376205D01*
X136686894Y-95775057D01*
X136227363Y-95314722D01*
X136223711Y-95313206D01*
X136236745Y-95276350D01*
X135300000Y-94339605D01*
X134363255Y-95276350D01*
X134376101Y-95312675D01*
X134375057Y-95313106D01*
X133914722Y-95772637D01*
X133665284Y-96373352D01*
X133664716Y-97023795D01*
X133430203Y-97023795D01*
X133471908Y-96911539D01*
X133447856Y-96261540D01*
X133245387Y-95772736D01*
X132978532Y-95674073D01*
X132005605Y-96647000D01*
X131646395Y-96647000D01*
X130673468Y-95674073D01*
X130406613Y-95772736D01*
X130180092Y-96382461D01*
X124994175Y-96382461D01*
X124951890Y-96353569D01*
X124948808Y-96352945D01*
X125042914Y-96259003D01*
X125284724Y-95676659D01*
X125284883Y-95494468D01*
X130853073Y-95494468D01*
X131826000Y-96467395D01*
X132798927Y-95494468D01*
X132700264Y-95227613D01*
X132090539Y-95001092D01*
X131440540Y-95025144D01*
X130951736Y-95227613D01*
X130853073Y-95494468D01*
X125284883Y-95494468D01*
X125285275Y-95046107D01*
X125044481Y-94463343D01*
X124599003Y-94017086D01*
X124334845Y-93907398D01*
X133703812Y-93907398D01*
X133728648Y-94537461D01*
X133921981Y-95004208D01*
X134183650Y-95096745D01*
X135120395Y-94160000D01*
X135479605Y-94160000D01*
X136416350Y-95096745D01*
X136678019Y-95004208D01*
X136896188Y-94412602D01*
X136871352Y-93782539D01*
X136678019Y-93315792D01*
X136416350Y-93223255D01*
X135479605Y-94160000D01*
X135120395Y-94160000D01*
X134183650Y-93223255D01*
X133921981Y-93315792D01*
X133703812Y-93907398D01*
X124334845Y-93907398D01*
X124016659Y-93775276D01*
X123386107Y-93774725D01*
X122803343Y-94015519D01*
X122357086Y-94460997D01*
X122115276Y-95043341D01*
X122114725Y-95673893D01*
X122355519Y-96256657D01*
X122453029Y-96354337D01*
X122248559Y-96485910D01*
X122103569Y-96698110D01*
X122052560Y-96950000D01*
X121476277Y-96950000D01*
X121474250Y-96874565D01*
X121226123Y-96275533D01*
X120933320Y-96146285D01*
X119779605Y-97300000D01*
X119420395Y-97300000D01*
X119406253Y-97285858D01*
X119585858Y-97106253D01*
X119600000Y-97120395D01*
X120753715Y-95966680D01*
X120624467Y-95673877D01*
X119924194Y-95405612D01*
X119657743Y-95412770D01*
X122085359Y-93043650D01*
X134363255Y-93043650D01*
X135300000Y-93980395D01*
X136236745Y-93043650D01*
X136144208Y-92781981D01*
X135552602Y-92563812D01*
X134922539Y-92588648D01*
X134455792Y-92781981D01*
X134363255Y-93043650D01*
X122085359Y-93043650D01*
X122723803Y-92420591D01*
X122738675Y-92417633D01*
X123025790Y-92225790D01*
X123217633Y-91938675D01*
X123270917Y-91670795D01*
X130190716Y-91670795D01*
X130439106Y-92271943D01*
X130898637Y-92732278D01*
X131499352Y-92981716D01*
X132149795Y-92982284D01*
X132750943Y-92733894D01*
X133211278Y-92274363D01*
X133460716Y-91673648D01*
X133461284Y-91023205D01*
X133212894Y-90422057D01*
X132753363Y-89961722D01*
X132152648Y-89712284D01*
X131502205Y-89711716D01*
X130901057Y-89960106D01*
X130440722Y-90419637D01*
X130191284Y-91020352D01*
X130190716Y-91670795D01*
X123270917Y-91670795D01*
X123285000Y-91600000D01*
X123285000Y-88211732D01*
X123353938Y-88280670D01*
X123468648Y-88165960D01*
X123548920Y-88417259D01*
X124104279Y-88618718D01*
X124694458Y-88592315D01*
X125117080Y-88417259D01*
X125197353Y-88165958D01*
X124333000Y-87301605D01*
X124318858Y-87315748D01*
X124139253Y-87136143D01*
X124153395Y-87122000D01*
X124512605Y-87122000D01*
X125376958Y-87986353D01*
X125594640Y-87916819D01*
X125613344Y-87962086D01*
X126030717Y-88380188D01*
X126576319Y-88606742D01*
X127167089Y-88607257D01*
X127713086Y-88381656D01*
X128131188Y-87964283D01*
X128142748Y-87936443D01*
X128153344Y-87962086D01*
X128570717Y-88380188D01*
X129116319Y-88606742D01*
X129707089Y-88607257D01*
X130253086Y-88381656D01*
X130671188Y-87964283D01*
X130682748Y-87936443D01*
X130693344Y-87962086D01*
X131110717Y-88380188D01*
X131656319Y-88606742D01*
X132247089Y-88607257D01*
X132793086Y-88381656D01*
X133211188Y-87964283D01*
X133222748Y-87936443D01*
X133233344Y-87962086D01*
X133650717Y-88380188D01*
X134196319Y-88606742D01*
X134787089Y-88607257D01*
X135333086Y-88381656D01*
X135751188Y-87964283D01*
X135762748Y-87936443D01*
X135773344Y-87962086D01*
X136190717Y-88380188D01*
X136736319Y-88606742D01*
X137327089Y-88607257D01*
X137873086Y-88381656D01*
X138291188Y-87964283D01*
X138517742Y-87418681D01*
X138518257Y-86827911D01*
X138292656Y-86281914D01*
X137875283Y-85863812D01*
X137329681Y-85637258D01*
X136738911Y-85636743D01*
X136192914Y-85862344D01*
X135774812Y-86279717D01*
X135763252Y-86307557D01*
X135752656Y-86281914D01*
X135335283Y-85863812D01*
X134789681Y-85637258D01*
X134198911Y-85636743D01*
X133652914Y-85862344D01*
X133234812Y-86279717D01*
X133223252Y-86307557D01*
X133212656Y-86281914D01*
X132795283Y-85863812D01*
X132249681Y-85637258D01*
X131658911Y-85636743D01*
X131112914Y-85862344D01*
X130694812Y-86279717D01*
X130683252Y-86307557D01*
X130672656Y-86281914D01*
X130255283Y-85863812D01*
X129709681Y-85637258D01*
X129118911Y-85636743D01*
X128572914Y-85862344D01*
X128154812Y-86279717D01*
X128143252Y-86307557D01*
X128132656Y-86281914D01*
X127715283Y-85863812D01*
X127169681Y-85637258D01*
X126578911Y-85636743D01*
X126032914Y-85862344D01*
X125614812Y-86279717D01*
X125595049Y-86327312D01*
X125376958Y-86257647D01*
X124512605Y-87122000D01*
X124153395Y-87122000D01*
X124139253Y-87107858D01*
X124318858Y-86928253D01*
X124333000Y-86942395D01*
X125197353Y-86078042D01*
X125117080Y-85826741D01*
X124561721Y-85625282D01*
X123971542Y-85651685D01*
X123548920Y-85826741D01*
X123468648Y-86078040D01*
X123353938Y-85963330D01*
X123285000Y-86032268D01*
X123285000Y-84459825D01*
X128580781Y-84295360D01*
X129366208Y-85080787D01*
G36*
X117873000Y-73789000D02*
X116459000Y-73789000D01*
X116168161Y-73846852D01*
X115921599Y-74011599D01*
X115372638Y-74560560D01*
X114999000Y-74560560D01*
X114763683Y-74604838D01*
X114547559Y-74743910D01*
X114499866Y-74813711D01*
X114463090Y-74756559D01*
X114250890Y-74611569D01*
X113999000Y-74560560D01*
X112999000Y-74560560D01*
X112763683Y-74604838D01*
X112547559Y-74743910D01*
X112499866Y-74813711D01*
X112463090Y-74756559D01*
X112250890Y-74611569D01*
X111999000Y-74560560D01*
X110999000Y-74560560D01*
X110763683Y-74604838D01*
X110547559Y-74743910D01*
X110499866Y-74813711D01*
X110463090Y-74756559D01*
X110250890Y-74611569D01*
X109999000Y-74560560D01*
X109928835Y-74560560D01*
X109989000Y-74415310D01*
X109989000Y-74199750D01*
X109830250Y-74041000D01*
X109081000Y-74041000D01*
X109081000Y-74061000D01*
X108827000Y-74061000D01*
X108827000Y-74041000D01*
X108807000Y-74041000D01*
X108807000Y-73787000D01*
X108827000Y-73787000D01*
X108827000Y-72517000D01*
X109081000Y-72517000D01*
X109081000Y-73787000D01*
X109830250Y-73787000D01*
X109989000Y-73628250D01*
X109989000Y-73412690D01*
X109892327Y-73179301D01*
X109865026Y-73152000D01*
X109892327Y-73124699D01*
X109989000Y-72891310D01*
X109989000Y-72675750D01*
X109830250Y-72517000D01*
X109081000Y-72517000D01*
X108827000Y-72517000D01*
X108807000Y-72517000D01*
X108807000Y-72263000D01*
X108827000Y-72263000D01*
X108827000Y-71538750D01*
X109081000Y-71538750D01*
X109081000Y-72263000D01*
X109830250Y-72263000D01*
X109989000Y-72104250D01*
X109989000Y-71888690D01*
X109892327Y-71655301D01*
X109713698Y-71476673D01*
X109480309Y-71380000D01*
X109239750Y-71380000D01*
X109081000Y-71538750D01*
X108827000Y-71538750D01*
X108668250Y-71380000D01*
X108427691Y-71380000D01*
X108194302Y-71476673D01*
X108192932Y-71478043D01*
X108105890Y-71418569D01*
X107854000Y-71367560D01*
X107054000Y-71367560D01*
X106818683Y-71411838D01*
X106602559Y-71550910D01*
X106457569Y-71763110D01*
X106451243Y-71794350D01*
X106376090Y-71677559D01*
X106163890Y-71532569D01*
X105912000Y-71481560D01*
X105162000Y-71481560D01*
X104926683Y-71525838D01*
X104710559Y-71664910D01*
X104639437Y-71769000D01*
X104636000Y-71769000D01*
X104345161Y-71826852D01*
X104098599Y-71991599D01*
X103475599Y-72614599D01*
X103310852Y-72861161D01*
X103253000Y-73152000D01*
X103253000Y-74041000D01*
X103310852Y-74331839D01*
X103463678Y-74560560D01*
X102999000Y-74560560D01*
X102763683Y-74604838D01*
X102547559Y-74743910D01*
X102402569Y-74956110D01*
X102351560Y-75208000D01*
X102351560Y-78208000D01*
X102395838Y-78443317D01*
X102534910Y-78659441D01*
X102747110Y-78804431D01*
X102999000Y-78855440D01*
X103999000Y-78855440D01*
X104234317Y-78811162D01*
X104450441Y-78672090D01*
X104498134Y-78602289D01*
X104534910Y-78659441D01*
X104747110Y-78804431D01*
X104999000Y-78855440D01*
X105999000Y-78855440D01*
X106234317Y-78811162D01*
X106450441Y-78672090D01*
X106498134Y-78602289D01*
X106534910Y-78659441D01*
X106664000Y-78747644D01*
X106664000Y-88813753D01*
X106507808Y-88969673D01*
X106365162Y-89313201D01*
X106364838Y-89685167D01*
X106506883Y-90028943D01*
X106769673Y-90292192D01*
X107113201Y-90434838D01*
X107485167Y-90435162D01*
X107828943Y-90293117D01*
X108092192Y-90030327D01*
X108234838Y-89686799D01*
X108234849Y-89673805D01*
X108270439Y-89620541D01*
X108334000Y-89301000D01*
X108334000Y-80304868D01*
X108883566Y-80854434D01*
X109154460Y-81035440D01*
X109474000Y-81099000D01*
X115697000Y-81099000D01*
X116016541Y-81035439D01*
X116287434Y-80854434D01*
X117351560Y-79790308D01*
X117351560Y-80208000D01*
X117395838Y-80443317D01*
X117534910Y-80659441D01*
X117604711Y-80707134D01*
X117547559Y-80743910D01*
X117402569Y-80956110D01*
X117351560Y-81208000D01*
X117351560Y-82208000D01*
X117395838Y-82443317D01*
X117534910Y-82659441D01*
X117604711Y-82707134D01*
X117547559Y-82743910D01*
X117402569Y-82956110D01*
X117351560Y-83208000D01*
X117351560Y-84208000D01*
X117395838Y-84443317D01*
X117534910Y-84659441D01*
X117604711Y-84707134D01*
X117547559Y-84743910D01*
X117402569Y-84956110D01*
X117351560Y-85208000D01*
X117351560Y-86208000D01*
X117395838Y-86443317D01*
X117534910Y-86659441D01*
X117604711Y-86707134D01*
X117547559Y-86743910D01*
X117402569Y-86956110D01*
X117351560Y-87208000D01*
X117351560Y-88208000D01*
X117395838Y-88443317D01*
X117534910Y-88659441D01*
X117604711Y-88707134D01*
X117547559Y-88743910D01*
X117402569Y-88956110D01*
X117351560Y-89208000D01*
X117351560Y-90208000D01*
X117395838Y-90443317D01*
X117479287Y-90573000D01*
X117371998Y-90573000D01*
X117371998Y-90731748D01*
X117213250Y-90573000D01*
X116872690Y-90573000D01*
X116639301Y-90669673D01*
X116499000Y-90809975D01*
X116358699Y-90669673D01*
X116125310Y-90573000D01*
X115784750Y-90573000D01*
X115626000Y-90731750D01*
X115626000Y-92581000D01*
X116475250Y-92581000D01*
X116499000Y-92557250D01*
X116522750Y-92581000D01*
X117372000Y-92581000D01*
X117372000Y-92561000D01*
X117626000Y-92561000D01*
X117626000Y-92581000D01*
X118475250Y-92581000D01*
X118634000Y-92422250D01*
X118634000Y-91081691D01*
X118540284Y-90855440D01*
X120999000Y-90855440D01*
X121234317Y-90811162D01*
X121450441Y-90672090D01*
X121515000Y-90577605D01*
X121515000Y-91127083D01*
X118634000Y-93938661D01*
X118634000Y-92993750D01*
X118475250Y-92835000D01*
X117626000Y-92835000D01*
X117626000Y-92855000D01*
X117372000Y-92855000D01*
X117372000Y-92835000D01*
X116522750Y-92835000D01*
X116499000Y-92858750D01*
X116475250Y-92835000D01*
X115626000Y-92835000D01*
X115626000Y-92855000D01*
X115372000Y-92855000D01*
X115372000Y-92835000D01*
X115352000Y-92835000D01*
X115352000Y-92581000D01*
X115372000Y-92581000D01*
X115372000Y-90731750D01*
X115213250Y-90573000D01*
X114872690Y-90573000D01*
X114639301Y-90669673D01*
X114498064Y-90810911D01*
X114463090Y-90756559D01*
X114250890Y-90611569D01*
X113999000Y-90560560D01*
X112999000Y-90560560D01*
X112763683Y-90604838D01*
X112547559Y-90743910D01*
X112499866Y-90813711D01*
X112463090Y-90756559D01*
X112317631Y-90657171D01*
X112614802Y-90360000D01*
X115500000Y-90360000D01*
X115565408Y-90346989D01*
X115632077Y-90348435D01*
X115709431Y-90318341D01*
X115790839Y-90302148D01*
X115846287Y-90265099D01*
X115908437Y-90240920D01*
X115968386Y-90183515D01*
X116037401Y-90137401D01*
X116074451Y-90081952D01*
X116122616Y-90035831D01*
X116508861Y-89484053D01*
X116728943Y-89393117D01*
X116992192Y-89130327D01*
X117134838Y-88786799D01*
X117135162Y-88414833D01*
X116993117Y-88071057D01*
X116730327Y-87807808D01*
X116386799Y-87665162D01*
X116014833Y-87664838D01*
X115671057Y-87806883D01*
X115407808Y-88069673D01*
X115265162Y-88413201D01*
X115264990Y-88610445D01*
X115104302Y-88840000D01*
X112300000Y-88840000D01*
X112009161Y-88897852D01*
X111762599Y-89062599D01*
X110961599Y-89863599D01*
X110796852Y-90110161D01*
X110739000Y-90401000D01*
X110739000Y-90620721D01*
X110547559Y-90743910D01*
X110499866Y-90813711D01*
X110463090Y-90756559D01*
X110259000Y-90617110D01*
X110259000Y-90363461D01*
X110292192Y-90330327D01*
X110434838Y-89986799D01*
X110435162Y-89614833D01*
X110293117Y-89271057D01*
X110030327Y-89007808D01*
X109686799Y-88865162D01*
X109314833Y-88864838D01*
X108971057Y-89006883D01*
X108707808Y-89269673D01*
X108565162Y-89613201D01*
X108564838Y-89985167D01*
X108706883Y-90328943D01*
X108739000Y-90361116D01*
X108739000Y-90620721D01*
X108547559Y-90743910D01*
X108499866Y-90813711D01*
X108463090Y-90756559D01*
X108250890Y-90611569D01*
X107999000Y-90560560D01*
X106999000Y-90560560D01*
X106763683Y-90604838D01*
X106547559Y-90743910D01*
X106499866Y-90813711D01*
X106463090Y-90756559D01*
X106259000Y-90617110D01*
X106259000Y-87863461D01*
X106292192Y-87830327D01*
X106434838Y-87486799D01*
X106435162Y-87114833D01*
X106293117Y-86771057D01*
X106030327Y-86507808D01*
X105686799Y-86365162D01*
X105314833Y-86364838D01*
X104971057Y-86506883D01*
X104707808Y-86769673D01*
X104565162Y-87113201D01*
X104564838Y-87485167D01*
X104706883Y-87828943D01*
X104739000Y-87861116D01*
X104739000Y-90620721D01*
X104547559Y-90743910D01*
X104499866Y-90813711D01*
X104463090Y-90756559D01*
X104259000Y-90617110D01*
X104259000Y-86369436D01*
X104334838Y-86186799D01*
X104335162Y-85814833D01*
X104193117Y-85471057D01*
X103930327Y-85207808D01*
X103586799Y-85065162D01*
X103214833Y-85064838D01*
X102871057Y-85206883D01*
X102607808Y-85469673D01*
X102465162Y-85813201D01*
X102464838Y-86185167D01*
X102606883Y-86528943D01*
X102739000Y-86661291D01*
X102739000Y-90620721D01*
X102547559Y-90743910D01*
X102402569Y-90956110D01*
X102351560Y-91208000D01*
X102351560Y-94208000D01*
X102395838Y-94443317D01*
X102534910Y-94659441D01*
X102747110Y-94804431D01*
X102999000Y-94855440D01*
X103999000Y-94855440D01*
X104234317Y-94811162D01*
X104450441Y-94672090D01*
X104498134Y-94602289D01*
X104534910Y-94659441D01*
X104747110Y-94804431D01*
X104999000Y-94855440D01*
X105999000Y-94855440D01*
X106234317Y-94811162D01*
X106450441Y-94672090D01*
X106498134Y-94602289D01*
X106534910Y-94659441D01*
X106747110Y-94804431D01*
X106771308Y-94809331D01*
X106674210Y-94874210D01*
X106674208Y-94874213D01*
X106424210Y-95124210D01*
X106232367Y-95411325D01*
X106232367Y-95411326D01*
X106164999Y-95750000D01*
X106165000Y-95750005D01*
X106165000Y-95815000D01*
X105381059Y-95815000D01*
X105269161Y-95702907D01*
X104576595Y-95415328D01*
X103826695Y-95414674D01*
X103133628Y-95701043D01*
X102602907Y-96230839D01*
X102315328Y-96923405D01*
X102314674Y-97673305D01*
X102601043Y-98366372D01*
X103130839Y-98897093D01*
X103823405Y-99184672D01*
X104573305Y-99185326D01*
X105266372Y-98898957D01*
X105797093Y-98369161D01*
X106084672Y-97676595D01*
X106084752Y-97585000D01*
X106165000Y-97585000D01*
X106165000Y-97610025D01*
X106053569Y-97773110D01*
X106002560Y-98025000D01*
X106002560Y-98775000D01*
X106046838Y-99010317D01*
X106185910Y-99226441D01*
X106224302Y-99252673D01*
X106111673Y-99365301D01*
X106015000Y-99598690D01*
X106015000Y-99814250D01*
X106173750Y-99973000D01*
X106923000Y-99973000D01*
X106923000Y-99953000D01*
X107177000Y-99953000D01*
X107177000Y-99973000D01*
X107197000Y-99973000D01*
X107197000Y-100227000D01*
X107177000Y-100227000D01*
X107177000Y-100247000D01*
X106923000Y-100247000D01*
X106923000Y-100227000D01*
X106173750Y-100227000D01*
X106015000Y-100385750D01*
X106015000Y-100601310D01*
X106111673Y-100834699D01*
X106149974Y-100873000D01*
X101985000Y-100873000D01*
X101985000Y-71127000D01*
X117873000Y-71127000D01*
X117873000Y-73789000D01*
X117873000Y-73789000D01*
G37*
X117873000Y-73789000D02*
X116459000Y-73789000D01*
X116168161Y-73846852D01*
X115921599Y-74011599D01*
X115372638Y-74560560D01*
X114999000Y-74560560D01*
X114763683Y-74604838D01*
X114547559Y-74743910D01*
X114499866Y-74813711D01*
X114463090Y-74756559D01*
X114250890Y-74611569D01*
X113999000Y-74560560D01*
X112999000Y-74560560D01*
X112763683Y-74604838D01*
X112547559Y-74743910D01*
X112499866Y-74813711D01*
X112463090Y-74756559D01*
X112250890Y-74611569D01*
X111999000Y-74560560D01*
X110999000Y-74560560D01*
X110763683Y-74604838D01*
X110547559Y-74743910D01*
X110499866Y-74813711D01*
X110463090Y-74756559D01*
X110250890Y-74611569D01*
X109999000Y-74560560D01*
X109928835Y-74560560D01*
X109989000Y-74415310D01*
X109989000Y-74199750D01*
X109830250Y-74041000D01*
X109081000Y-74041000D01*
X109081000Y-74061000D01*
X108827000Y-74061000D01*
X108827000Y-74041000D01*
X108807000Y-74041000D01*
X108807000Y-73787000D01*
X108827000Y-73787000D01*
X108827000Y-72517000D01*
X109081000Y-72517000D01*
X109081000Y-73787000D01*
X109830250Y-73787000D01*
X109989000Y-73628250D01*
X109989000Y-73412690D01*
X109892327Y-73179301D01*
X109865026Y-73152000D01*
X109892327Y-73124699D01*
X109989000Y-72891310D01*
X109989000Y-72675750D01*
X109830250Y-72517000D01*
X109081000Y-72517000D01*
X108827000Y-72517000D01*
X108807000Y-72517000D01*
X108807000Y-72263000D01*
X108827000Y-72263000D01*
X108827000Y-71538750D01*
X109081000Y-71538750D01*
X109081000Y-72263000D01*
X109830250Y-72263000D01*
X109989000Y-72104250D01*
X109989000Y-71888690D01*
X109892327Y-71655301D01*
X109713698Y-71476673D01*
X109480309Y-71380000D01*
X109239750Y-71380000D01*
X109081000Y-71538750D01*
X108827000Y-71538750D01*
X108668250Y-71380000D01*
X108427691Y-71380000D01*
X108194302Y-71476673D01*
X108192932Y-71478043D01*
X108105890Y-71418569D01*
X107854000Y-71367560D01*
X107054000Y-71367560D01*
X106818683Y-71411838D01*
X106602559Y-71550910D01*
X106457569Y-71763110D01*
X106451243Y-71794350D01*
X106376090Y-71677559D01*
X106163890Y-71532569D01*
X105912000Y-71481560D01*
X105162000Y-71481560D01*
X104926683Y-71525838D01*
X104710559Y-71664910D01*
X104639437Y-71769000D01*
X104636000Y-71769000D01*
X104345161Y-71826852D01*
X104098599Y-71991599D01*
X103475599Y-72614599D01*
X103310852Y-72861161D01*
X103253000Y-73152000D01*
X103253000Y-74041000D01*
X103310852Y-74331839D01*
X103463678Y-74560560D01*
X102999000Y-74560560D01*
X102763683Y-74604838D01*
X102547559Y-74743910D01*
X102402569Y-74956110D01*
X102351560Y-75208000D01*
X102351560Y-78208000D01*
X102395838Y-78443317D01*
X102534910Y-78659441D01*
X102747110Y-78804431D01*
X102999000Y-78855440D01*
X103999000Y-78855440D01*
X104234317Y-78811162D01*
X104450441Y-78672090D01*
X104498134Y-78602289D01*
X104534910Y-78659441D01*
X104747110Y-78804431D01*
X104999000Y-78855440D01*
X105999000Y-78855440D01*
X106234317Y-78811162D01*
X106450441Y-78672090D01*
X106498134Y-78602289D01*
X106534910Y-78659441D01*
X106664000Y-78747644D01*
X106664000Y-88813753D01*
X106507808Y-88969673D01*
X106365162Y-89313201D01*
X106364838Y-89685167D01*
X106506883Y-90028943D01*
X106769673Y-90292192D01*
X107113201Y-90434838D01*
X107485167Y-90435162D01*
X107828943Y-90293117D01*
X108092192Y-90030327D01*
X108234838Y-89686799D01*
X108234849Y-89673805D01*
X108270439Y-89620541D01*
X108334000Y-89301000D01*
X108334000Y-80304868D01*
X108883566Y-80854434D01*
X109154460Y-81035440D01*
X109474000Y-81099000D01*
X115697000Y-81099000D01*
X116016541Y-81035439D01*
X116287434Y-80854434D01*
X117351560Y-79790308D01*
X117351560Y-80208000D01*
X117395838Y-80443317D01*
X117534910Y-80659441D01*
X117604711Y-80707134D01*
X117547559Y-80743910D01*
X117402569Y-80956110D01*
X117351560Y-81208000D01*
X117351560Y-82208000D01*
X117395838Y-82443317D01*
X117534910Y-82659441D01*
X117604711Y-82707134D01*
X117547559Y-82743910D01*
X117402569Y-82956110D01*
X117351560Y-83208000D01*
X117351560Y-84208000D01*
X117395838Y-84443317D01*
X117534910Y-84659441D01*
X117604711Y-84707134D01*
X117547559Y-84743910D01*
X117402569Y-84956110D01*
X117351560Y-85208000D01*
X117351560Y-86208000D01*
X117395838Y-86443317D01*
X117534910Y-86659441D01*
X117604711Y-86707134D01*
X117547559Y-86743910D01*
X117402569Y-86956110D01*
X117351560Y-87208000D01*
X117351560Y-88208000D01*
X117395838Y-88443317D01*
X117534910Y-88659441D01*
X117604711Y-88707134D01*
X117547559Y-88743910D01*
X117402569Y-88956110D01*
X117351560Y-89208000D01*
X117351560Y-90208000D01*
X117395838Y-90443317D01*
X117479287Y-90573000D01*
X117371998Y-90573000D01*
X117371998Y-90731748D01*
X117213250Y-90573000D01*
X116872690Y-90573000D01*
X116639301Y-90669673D01*
X116499000Y-90809975D01*
X116358699Y-90669673D01*
X116125310Y-90573000D01*
X115784750Y-90573000D01*
X115626000Y-90731750D01*
X115626000Y-92581000D01*
X116475250Y-92581000D01*
X116499000Y-92557250D01*
X116522750Y-92581000D01*
X117372000Y-92581000D01*
X117372000Y-92561000D01*
X117626000Y-92561000D01*
X117626000Y-92581000D01*
X118475250Y-92581000D01*
X118634000Y-92422250D01*
X118634000Y-91081691D01*
X118540284Y-90855440D01*
X120999000Y-90855440D01*
X121234317Y-90811162D01*
X121450441Y-90672090D01*
X121515000Y-90577605D01*
X121515000Y-91127083D01*
X118634000Y-93938661D01*
X118634000Y-92993750D01*
X118475250Y-92835000D01*
X117626000Y-92835000D01*
X117626000Y-92855000D01*
X117372000Y-92855000D01*
X117372000Y-92835000D01*
X116522750Y-92835000D01*
X116499000Y-92858750D01*
X116475250Y-92835000D01*
X115626000Y-92835000D01*
X115626000Y-92855000D01*
X115372000Y-92855000D01*
X115372000Y-92835000D01*
X115352000Y-92835000D01*
X115352000Y-92581000D01*
X115372000Y-92581000D01*
X115372000Y-90731750D01*
X115213250Y-90573000D01*
X114872690Y-90573000D01*
X114639301Y-90669673D01*
X114498064Y-90810911D01*
X114463090Y-90756559D01*
X114250890Y-90611569D01*
X113999000Y-90560560D01*
X112999000Y-90560560D01*
X112763683Y-90604838D01*
X112547559Y-90743910D01*
X112499866Y-90813711D01*
X112463090Y-90756559D01*
X112317631Y-90657171D01*
X112614802Y-90360000D01*
X115500000Y-90360000D01*
X115565408Y-90346989D01*
X115632077Y-90348435D01*
X115709431Y-90318341D01*
X115790839Y-90302148D01*
X115846287Y-90265099D01*
X115908437Y-90240920D01*
X115968386Y-90183515D01*
X116037401Y-90137401D01*
X116074451Y-90081952D01*
X116122616Y-90035831D01*
X116508861Y-89484053D01*
X116728943Y-89393117D01*
X116992192Y-89130327D01*
X117134838Y-88786799D01*
X117135162Y-88414833D01*
X116993117Y-88071057D01*
X116730327Y-87807808D01*
X116386799Y-87665162D01*
X116014833Y-87664838D01*
X115671057Y-87806883D01*
X115407808Y-88069673D01*
X115265162Y-88413201D01*
X115264990Y-88610445D01*
X115104302Y-88840000D01*
X112300000Y-88840000D01*
X112009161Y-88897852D01*
X111762599Y-89062599D01*
X110961599Y-89863599D01*
X110796852Y-90110161D01*
X110739000Y-90401000D01*
X110739000Y-90620721D01*
X110547559Y-90743910D01*
X110499866Y-90813711D01*
X110463090Y-90756559D01*
X110259000Y-90617110D01*
X110259000Y-90363461D01*
X110292192Y-90330327D01*
X110434838Y-89986799D01*
X110435162Y-89614833D01*
X110293117Y-89271057D01*
X110030327Y-89007808D01*
X109686799Y-88865162D01*
X109314833Y-88864838D01*
X108971057Y-89006883D01*
X108707808Y-89269673D01*
X108565162Y-89613201D01*
X108564838Y-89985167D01*
X108706883Y-90328943D01*
X108739000Y-90361116D01*
X108739000Y-90620721D01*
X108547559Y-90743910D01*
X108499866Y-90813711D01*
X108463090Y-90756559D01*
X108250890Y-90611569D01*
X107999000Y-90560560D01*
X106999000Y-90560560D01*
X106763683Y-90604838D01*
X106547559Y-90743910D01*
X106499866Y-90813711D01*
X106463090Y-90756559D01*
X106259000Y-90617110D01*
X106259000Y-87863461D01*
X106292192Y-87830327D01*
X106434838Y-87486799D01*
X106435162Y-87114833D01*
X106293117Y-86771057D01*
X106030327Y-86507808D01*
X105686799Y-86365162D01*
X105314833Y-86364838D01*
X104971057Y-86506883D01*
X104707808Y-86769673D01*
X104565162Y-87113201D01*
X104564838Y-87485167D01*
X104706883Y-87828943D01*
X104739000Y-87861116D01*
X104739000Y-90620721D01*
X104547559Y-90743910D01*
X104499866Y-90813711D01*
X104463090Y-90756559D01*
X104259000Y-90617110D01*
X104259000Y-86369436D01*
X104334838Y-86186799D01*
X104335162Y-85814833D01*
X104193117Y-85471057D01*
X103930327Y-85207808D01*
X103586799Y-85065162D01*
X103214833Y-85064838D01*
X102871057Y-85206883D01*
X102607808Y-85469673D01*
X102465162Y-85813201D01*
X102464838Y-86185167D01*
X102606883Y-86528943D01*
X102739000Y-86661291D01*
X102739000Y-90620721D01*
X102547559Y-90743910D01*
X102402569Y-90956110D01*
X102351560Y-91208000D01*
X102351560Y-94208000D01*
X102395838Y-94443317D01*
X102534910Y-94659441D01*
X102747110Y-94804431D01*
X102999000Y-94855440D01*
X103999000Y-94855440D01*
X104234317Y-94811162D01*
X104450441Y-94672090D01*
X104498134Y-94602289D01*
X104534910Y-94659441D01*
X104747110Y-94804431D01*
X104999000Y-94855440D01*
X105999000Y-94855440D01*
X106234317Y-94811162D01*
X106450441Y-94672090D01*
X106498134Y-94602289D01*
X106534910Y-94659441D01*
X106747110Y-94804431D01*
X106771308Y-94809331D01*
X106674210Y-94874210D01*
X106674208Y-94874213D01*
X106424210Y-95124210D01*
X106232367Y-95411325D01*
X106232367Y-95411326D01*
X106164999Y-95750000D01*
X106165000Y-95750005D01*
X106165000Y-95815000D01*
X105381059Y-95815000D01*
X105269161Y-95702907D01*
X104576595Y-95415328D01*
X103826695Y-95414674D01*
X103133628Y-95701043D01*
X102602907Y-96230839D01*
X102315328Y-96923405D01*
X102314674Y-97673305D01*
X102601043Y-98366372D01*
X103130839Y-98897093D01*
X103823405Y-99184672D01*
X104573305Y-99185326D01*
X105266372Y-98898957D01*
X105797093Y-98369161D01*
X106084672Y-97676595D01*
X106084752Y-97585000D01*
X106165000Y-97585000D01*
X106165000Y-97610025D01*
X106053569Y-97773110D01*
X106002560Y-98025000D01*
X106002560Y-98775000D01*
X106046838Y-99010317D01*
X106185910Y-99226441D01*
X106224302Y-99252673D01*
X106111673Y-99365301D01*
X106015000Y-99598690D01*
X106015000Y-99814250D01*
X106173750Y-99973000D01*
X106923000Y-99973000D01*
X106923000Y-99953000D01*
X107177000Y-99953000D01*
X107177000Y-99973000D01*
X107197000Y-99973000D01*
X107197000Y-100227000D01*
X107177000Y-100227000D01*
X107177000Y-100247000D01*
X106923000Y-100247000D01*
X106923000Y-100227000D01*
X106173750Y-100227000D01*
X106015000Y-100385750D01*
X106015000Y-100601310D01*
X106111673Y-100834699D01*
X106149974Y-100873000D01*
X101985000Y-100873000D01*
X101985000Y-71127000D01*
X117873000Y-71127000D01*
X117873000Y-73789000D01*
M02*
