G04 #@! TF.FileFunction,Legend,Top*
%FSLAX46Y46*%
G04 Gerber Fmt 4.6, Leading zero omitted, Abs format (unit mm)*
G04 Created by KiCad (PCBNEW 4.0.3-stable) date 05/03/17 00:29:37*
%MOMM*%
%LPD*%
G01*
G04 APERTURE LIST*
%ADD10C,0.152400*%
%ADD11C,0.300000*%
%ADD12C,0.150000*%
G04 APERTURE END LIST*
D10*
D11*
X126478571Y-54578571D02*
X124978571Y-54578571D01*
X126478571Y-53721428D01*
X124978571Y-53721428D01*
X126335714Y-52149999D02*
X126407143Y-52221428D01*
X126478571Y-52435714D01*
X126478571Y-52578571D01*
X126407143Y-52792856D01*
X126264286Y-52935714D01*
X126121429Y-53007142D01*
X125835714Y-53078571D01*
X125621429Y-53078571D01*
X125335714Y-53007142D01*
X125192857Y-52935714D01*
X125050000Y-52792856D01*
X124978571Y-52578571D01*
X124978571Y-52435714D01*
X125050000Y-52221428D01*
X125121429Y-52149999D01*
X131478571Y-54614286D02*
X129978571Y-54614286D01*
X131478571Y-53757143D01*
X129978571Y-53757143D01*
X129978571Y-52757143D02*
X129978571Y-52471429D01*
X130050000Y-52328571D01*
X130192857Y-52185714D01*
X130478571Y-52114286D01*
X130978571Y-52114286D01*
X131264286Y-52185714D01*
X131407143Y-52328571D01*
X131478571Y-52471429D01*
X131478571Y-52757143D01*
X131407143Y-52900000D01*
X131264286Y-53042857D01*
X130978571Y-53114286D01*
X130478571Y-53114286D01*
X130192857Y-53042857D01*
X130050000Y-52900000D01*
X129978571Y-52757143D01*
X136350000Y-55435714D02*
X136350000Y-54721428D01*
X136778571Y-55578571D02*
X135278571Y-55078571D01*
X136778571Y-54578571D01*
X136635714Y-53221428D02*
X136707143Y-53292857D01*
X136778571Y-53507143D01*
X136778571Y-53650000D01*
X136707143Y-53864285D01*
X136564286Y-54007143D01*
X136421429Y-54078571D01*
X136135714Y-54150000D01*
X135921429Y-54150000D01*
X135635714Y-54078571D01*
X135492857Y-54007143D01*
X135350000Y-53864285D01*
X135278571Y-53650000D01*
X135278571Y-53507143D01*
X135350000Y-53292857D01*
X135421429Y-53221428D01*
X136207143Y-52578571D02*
X136207143Y-51435714D01*
X109850000Y-55435714D02*
X109850000Y-54721428D01*
X110278571Y-55578571D02*
X108778571Y-55078571D01*
X110278571Y-54578571D01*
X110135714Y-53221428D02*
X110207143Y-53292857D01*
X110278571Y-53507143D01*
X110278571Y-53650000D01*
X110207143Y-53864285D01*
X110064286Y-54007143D01*
X109921429Y-54078571D01*
X109635714Y-54150000D01*
X109421429Y-54150000D01*
X109135714Y-54078571D01*
X108992857Y-54007143D01*
X108850000Y-53864285D01*
X108778571Y-53650000D01*
X108778571Y-53507143D01*
X108850000Y-53292857D01*
X108921429Y-53221428D01*
X109707143Y-52578571D02*
X109707143Y-51435714D01*
X120050000Y-55435714D02*
X120050000Y-54721428D01*
X120478571Y-55578571D02*
X118978571Y-55078571D01*
X120478571Y-54578571D01*
X120335714Y-53221428D02*
X120407143Y-53292857D01*
X120478571Y-53507143D01*
X120478571Y-53650000D01*
X120407143Y-53864285D01*
X120264286Y-54007143D01*
X120121429Y-54078571D01*
X119835714Y-54150000D01*
X119621429Y-54150000D01*
X119335714Y-54078571D01*
X119192857Y-54007143D01*
X119050000Y-53864285D01*
X118978571Y-53650000D01*
X118978571Y-53507143D01*
X119050000Y-53292857D01*
X119121429Y-53221428D01*
X119907143Y-52578571D02*
X119907143Y-51435714D01*
X120478571Y-52007143D02*
X119335714Y-52007143D01*
X148448947Y-70637336D02*
X147448955Y-70641344D01*
X149018938Y-70277905D02*
X147946088Y-69925060D01*
X147949809Y-70853624D01*
X147452390Y-71498479D02*
X147453535Y-71784192D01*
X147525535Y-71926761D01*
X147597250Y-71997902D01*
X147812106Y-72139900D01*
X148098105Y-72210183D01*
X148669528Y-72207892D01*
X148812098Y-72135892D01*
X148883240Y-72064178D01*
X148954096Y-71921036D01*
X148952950Y-71635324D01*
X148880949Y-71492753D01*
X148809235Y-71421612D01*
X148666093Y-71350756D01*
X148308952Y-71352188D01*
X148166383Y-71424189D01*
X148095242Y-71495902D01*
X148024386Y-71639046D01*
X148025531Y-71924757D01*
X148097532Y-72067327D01*
X148169246Y-72138469D01*
X148312388Y-72209324D01*
X147600685Y-72855039D02*
X147529543Y-72926752D01*
X147457829Y-72855611D01*
X147528971Y-72783896D01*
X147600685Y-72855039D01*
X147457829Y-72855611D01*
X147460978Y-73641319D02*
X147462124Y-73927031D01*
X147534124Y-74069601D01*
X147605838Y-74140742D01*
X147820694Y-74282740D01*
X148106693Y-74353022D01*
X148678117Y-74350732D01*
X148820686Y-74278732D01*
X148891828Y-74207018D01*
X148962684Y-74063875D01*
X148961539Y-73778164D01*
X148889538Y-73635593D01*
X148817823Y-73564452D01*
X148674681Y-73493596D01*
X148317541Y-73495028D01*
X148174971Y-73567029D01*
X148103830Y-73638742D01*
X148032974Y-73781885D01*
X148034120Y-74067597D01*
X148106121Y-74210167D01*
X148177834Y-74281309D01*
X148320976Y-74352164D01*
X148967551Y-75278151D02*
X148968124Y-75421006D01*
X148897268Y-75564149D01*
X148826126Y-75635863D01*
X148683556Y-75707864D01*
X148398131Y-75780437D01*
X148040990Y-75781868D01*
X147754992Y-75711586D01*
X147611850Y-75640730D01*
X147540136Y-75569588D01*
X147468136Y-75427018D01*
X147467563Y-75284163D01*
X147538418Y-75141020D01*
X147609560Y-75069306D01*
X147752130Y-74997306D01*
X148037555Y-74924732D01*
X148394695Y-74923301D01*
X148680693Y-74993584D01*
X148823835Y-75064439D01*
X148895550Y-75135581D01*
X148967551Y-75278151D01*
X148973277Y-76706710D02*
X148973849Y-76849566D01*
X148902993Y-76992708D01*
X148831851Y-77064423D01*
X148689282Y-77136424D01*
X148403856Y-77208996D01*
X148046716Y-77210428D01*
X147760718Y-77140146D01*
X147617576Y-77069290D01*
X147545861Y-76998148D01*
X147473861Y-76855578D01*
X147473289Y-76712722D01*
X147544144Y-76569580D01*
X147615286Y-76497865D01*
X147757855Y-76425865D01*
X148043281Y-76353292D01*
X148400421Y-76351860D01*
X148686419Y-76422144D01*
X148829561Y-76492998D01*
X148901276Y-76564141D01*
X148973277Y-76706710D01*
X147482450Y-78998418D02*
X148482442Y-78994410D01*
X148339585Y-78994982D02*
X148411300Y-79066123D01*
X148483301Y-79208694D01*
X148484160Y-79422977D01*
X148413304Y-79566119D01*
X148270734Y-79638120D01*
X147485026Y-79641270D01*
X148270734Y-79638120D02*
X148413876Y-79708976D01*
X148485877Y-79851546D01*
X148486736Y-80065829D01*
X148415880Y-80208972D01*
X148273311Y-80280972D01*
X147487603Y-80284121D01*
X147490466Y-80998402D02*
X148490458Y-80994394D01*
X148347601Y-80994966D02*
X148419316Y-81066107D01*
X148491317Y-81208678D01*
X148492175Y-81422961D01*
X148421320Y-81566103D01*
X148278750Y-81638104D01*
X147493042Y-81641254D01*
X148278750Y-81638104D02*
X148421892Y-81708960D01*
X148493893Y-81851530D01*
X148494752Y-82065813D01*
X148423896Y-82208956D01*
X148281327Y-82280956D01*
X147495619Y-82284105D01*
X146699575Y-51193990D02*
X146899575Y-101093990D01*
X145200000Y-51200000D02*
X149399553Y-51183168D01*
X145400000Y-101100000D02*
X149599553Y-101083168D01*
X146899575Y-101093990D02*
X146308644Y-99969846D01*
X146899575Y-101093990D02*
X147481476Y-99965145D01*
X146699575Y-51193990D02*
X146117674Y-52322835D01*
X146699575Y-51193990D02*
X147290506Y-52318134D01*
X117560078Y-103954417D02*
X117564784Y-104954406D01*
X117200250Y-103384676D02*
X116848153Y-104457772D01*
X117776715Y-104453403D01*
X118272675Y-103593917D02*
X118343767Y-103522153D01*
X118486286Y-103450052D01*
X118843425Y-103448372D01*
X118986617Y-103519128D01*
X119058381Y-103590220D01*
X119130481Y-103732739D01*
X119131153Y-103875595D01*
X119060734Y-104090214D01*
X118207634Y-104951380D01*
X119136195Y-104947011D01*
X119778372Y-104801130D02*
X119850136Y-104872222D01*
X119779045Y-104943985D01*
X119707280Y-104872894D01*
X119778372Y-104801130D01*
X119779045Y-104943985D01*
X121200542Y-103437279D02*
X120486264Y-103440641D01*
X120418197Y-104155255D01*
X120489289Y-104083492D01*
X120631808Y-104011391D01*
X120988947Y-104009711D01*
X121132139Y-104080467D01*
X121203903Y-104151558D01*
X121276003Y-104294077D01*
X121277683Y-104651216D01*
X121206929Y-104794407D01*
X121135836Y-104866172D01*
X120993317Y-104938271D01*
X120636178Y-104939952D01*
X120492987Y-104869197D01*
X120421222Y-104798105D01*
X122200530Y-103432574D02*
X122343385Y-103431901D01*
X122486577Y-103502657D01*
X122558341Y-103573749D01*
X122630442Y-103716269D01*
X122703213Y-104001643D01*
X122704894Y-104358782D01*
X122634811Y-104644829D01*
X122564056Y-104788021D01*
X122492963Y-104859785D01*
X122350444Y-104931885D01*
X122207589Y-104932557D01*
X122064397Y-104861802D01*
X121992633Y-104790710D01*
X121920533Y-104648191D01*
X121847761Y-104362816D01*
X121846080Y-104005677D01*
X121916164Y-103719630D01*
X121986919Y-103576438D01*
X122058011Y-103504674D01*
X122200530Y-103432574D01*
X123629085Y-103425851D02*
X123771941Y-103425179D01*
X123915132Y-103495935D01*
X123986896Y-103567027D01*
X124058997Y-103709546D01*
X124131769Y-103994921D01*
X124133449Y-104352060D01*
X124063367Y-104638107D01*
X123992611Y-104781298D01*
X123921519Y-104853063D01*
X123778999Y-104925162D01*
X123636144Y-104925834D01*
X123492952Y-104855079D01*
X123421188Y-104783987D01*
X123349089Y-104641468D01*
X123276316Y-104356093D01*
X123274635Y-103998954D01*
X123344719Y-103712907D01*
X123415474Y-103569716D01*
X123486566Y-103497952D01*
X123629085Y-103425851D01*
X125921833Y-104915078D02*
X125917127Y-103915089D01*
X125917799Y-104057946D02*
X125988890Y-103986181D01*
X126131410Y-103914081D01*
X126345693Y-103913073D01*
X126488885Y-103983828D01*
X126560985Y-104126348D01*
X126564682Y-104912053D01*
X126560985Y-104126348D02*
X126631741Y-103983156D01*
X126774260Y-103911056D01*
X126988543Y-103910047D01*
X127131735Y-103980803D01*
X127203835Y-104123323D01*
X127207532Y-104909028D01*
X127921810Y-104905667D02*
X127917105Y-103905678D01*
X127917777Y-104048534D02*
X127988868Y-103976770D01*
X128131388Y-103904669D01*
X128345671Y-103903661D01*
X128488862Y-103974417D01*
X128560963Y-104116936D01*
X128564660Y-104902641D01*
X128560963Y-104116936D02*
X128631719Y-103973745D01*
X128774238Y-103901644D01*
X128988521Y-103900636D01*
X129131713Y-103971392D01*
X129203813Y-104113911D01*
X129207510Y-104899616D01*
X101805176Y-102999975D02*
X144305176Y-102799975D01*
X101800000Y-101900000D02*
X101817882Y-105699945D01*
X144300000Y-101700000D02*
X144317882Y-105499945D01*
X144305176Y-102799975D02*
X143181444Y-103391690D01*
X144305176Y-102799975D02*
X143175925Y-102218862D01*
X101805176Y-102999975D02*
X102934427Y-103581088D01*
X101805176Y-102999975D02*
X102928908Y-102408260D01*
D12*
X110300000Y-62600000D02*
X107200000Y-62600000D01*
X107200000Y-62600000D02*
X107200000Y-52600000D01*
X107200000Y-52600000D02*
X110300000Y-52600000D01*
X122700000Y-62600000D02*
X110300000Y-62600000D01*
X122700000Y-62600000D02*
X122700000Y-52600000D01*
X122700000Y-52600000D02*
X110300000Y-52600000D01*
X128108000Y-95535000D02*
X128108000Y-96235000D01*
X126908000Y-96235000D02*
X126908000Y-95535000D01*
X135300000Y-52600000D02*
X138400000Y-52600000D01*
X138400000Y-52600000D02*
X138400000Y-62600000D01*
X138400000Y-62600000D02*
X135300000Y-62600000D01*
X122900000Y-52600000D02*
X135300000Y-52600000D01*
X122900000Y-52600000D02*
X122900000Y-62600000D01*
X122900000Y-62600000D02*
X135300000Y-62600000D01*
X139573000Y-89662000D02*
X139573000Y-84582000D01*
X139573000Y-84582000D02*
X121793000Y-84582000D01*
X121793000Y-84582000D02*
X121793000Y-89662000D01*
X121793000Y-89662000D02*
X139573000Y-89662000D01*
X126800000Y-94700000D02*
X126800000Y-91200000D01*
X126800000Y-91200000D02*
X124400000Y-91200000D01*
X124400000Y-91200000D02*
X124400000Y-92000000D01*
X124400000Y-92000000D02*
X122700000Y-92000000D01*
X122700000Y-92000000D02*
X122700000Y-93800000D01*
X122700000Y-93800000D02*
X124400000Y-93800000D01*
X124400000Y-93800000D02*
X124400000Y-94800000D01*
X124400000Y-94800000D02*
X126800000Y-94800000D01*
X126800000Y-94800000D02*
X126800000Y-94700000D01*
X122900000Y-89725000D02*
X123900000Y-89725000D01*
X123900000Y-91075000D02*
X122900000Y-91075000D01*
X129834000Y-95385000D02*
X129834000Y-96385000D01*
X128484000Y-96385000D02*
X128484000Y-95385000D01*
X127700000Y-91075000D02*
X126700000Y-91075000D01*
X126700000Y-89725000D02*
X127700000Y-89725000D01*
X128484000Y-93591000D02*
X128484000Y-92591000D01*
X129834000Y-92591000D02*
X129834000Y-93591000D01*
X121823000Y-63771000D02*
X139843000Y-63691000D01*
X139843000Y-63691000D02*
X139843000Y-83391000D01*
X139843000Y-83391000D02*
X121933000Y-83391000D01*
X121933000Y-83391000D02*
X121853000Y-63801000D01*
X137817936Y-95430000D02*
G75*
G03X137817936Y-95430000I-2517936J0D01*
G01*
X121430000Y-99500000D02*
X102030000Y-99520000D01*
X121460000Y-65870000D02*
X101960000Y-65900000D01*
X101990000Y-65940000D02*
X101990000Y-65820000D01*
X102020000Y-99520000D02*
X101980000Y-65960000D01*
X121430000Y-99480000D02*
X121430000Y-65840000D01*
X106586000Y-54200000D02*
G75*
G03X106586000Y-54200000I-2286000J0D01*
G01*
X143586000Y-54300000D02*
G75*
G03X143586000Y-54300000I-2286000J0D01*
G01*
X105566667Y-57752381D02*
X105566667Y-58466667D01*
X105519047Y-58609524D01*
X105423809Y-58704762D01*
X105280952Y-58752381D01*
X105185714Y-58752381D01*
X106566667Y-58752381D02*
X105995238Y-58752381D01*
X106280952Y-58752381D02*
X106280952Y-57752381D01*
X106185714Y-57895238D01*
X106090476Y-57990476D01*
X105995238Y-58038095D01*
X127857143Y-98566666D02*
X127904762Y-98614285D01*
X127952381Y-98757142D01*
X127952381Y-98852380D01*
X127904762Y-98995238D01*
X127809524Y-99090476D01*
X127714286Y-99138095D01*
X127523810Y-99185714D01*
X127380952Y-99185714D01*
X127190476Y-99138095D01*
X127095238Y-99090476D01*
X127000000Y-98995238D01*
X126952381Y-98852380D01*
X126952381Y-98757142D01*
X127000000Y-98614285D01*
X127047619Y-98566666D01*
X126952381Y-97709523D02*
X126952381Y-97900000D01*
X127000000Y-97995238D01*
X127047619Y-98042857D01*
X127190476Y-98138095D01*
X127380952Y-98185714D01*
X127761905Y-98185714D01*
X127857143Y-98138095D01*
X127904762Y-98090476D01*
X127952381Y-97995238D01*
X127952381Y-97804761D01*
X127904762Y-97709523D01*
X127857143Y-97661904D01*
X127761905Y-97614285D01*
X127523810Y-97614285D01*
X127428571Y-97661904D01*
X127380952Y-97709523D01*
X127333333Y-97804761D01*
X127333333Y-97995238D01*
X127380952Y-98090476D01*
X127428571Y-98138095D01*
X127523810Y-98185714D01*
X139266667Y-58452381D02*
X139266667Y-59166667D01*
X139219047Y-59309524D01*
X139123809Y-59404762D01*
X138980952Y-59452381D01*
X138885714Y-59452381D01*
X139695238Y-58547619D02*
X139742857Y-58500000D01*
X139838095Y-58452381D01*
X140076191Y-58452381D01*
X140171429Y-58500000D01*
X140219048Y-58547619D01*
X140266667Y-58642857D01*
X140266667Y-58738095D01*
X140219048Y-58880952D01*
X139647619Y-59452381D01*
X140266667Y-59452381D01*
X140466667Y-86252381D02*
X140466667Y-86966667D01*
X140419047Y-87109524D01*
X140323809Y-87204762D01*
X140180952Y-87252381D01*
X140085714Y-87252381D01*
X140847619Y-86252381D02*
X141466667Y-86252381D01*
X141133333Y-86633333D01*
X141276191Y-86633333D01*
X141371429Y-86680952D01*
X141419048Y-86728571D01*
X141466667Y-86823810D01*
X141466667Y-87061905D01*
X141419048Y-87157143D01*
X141371429Y-87204762D01*
X141276191Y-87252381D01*
X140990476Y-87252381D01*
X140895238Y-87204762D01*
X140847619Y-87157143D01*
X128147619Y-92795238D02*
X128100000Y-92890476D01*
X128004762Y-92985714D01*
X127861905Y-93128571D01*
X127814286Y-93223810D01*
X127814286Y-93319048D01*
X128052381Y-93271429D02*
X128004762Y-93366667D01*
X127909524Y-93461905D01*
X127719048Y-93509524D01*
X127385714Y-93509524D01*
X127195238Y-93461905D01*
X127100000Y-93366667D01*
X127052381Y-93271429D01*
X127052381Y-93080952D01*
X127100000Y-92985714D01*
X127195238Y-92890476D01*
X127385714Y-92842857D01*
X127719048Y-92842857D01*
X127909524Y-92890476D01*
X128004762Y-92985714D01*
X128052381Y-93080952D01*
X128052381Y-93271429D01*
X128052381Y-91890476D02*
X128052381Y-92461905D01*
X128052381Y-92176191D02*
X127052381Y-92176191D01*
X127195238Y-92271429D01*
X127290476Y-92366667D01*
X127338095Y-92461905D01*
X123033334Y-89252381D02*
X122700000Y-88776190D01*
X122461905Y-89252381D02*
X122461905Y-88252381D01*
X122842858Y-88252381D01*
X122938096Y-88300000D01*
X122985715Y-88347619D01*
X123033334Y-88442857D01*
X123033334Y-88585714D01*
X122985715Y-88680952D01*
X122938096Y-88728571D01*
X122842858Y-88776190D01*
X122461905Y-88776190D01*
X123985715Y-89252381D02*
X123414286Y-89252381D01*
X123700000Y-89252381D02*
X123700000Y-88252381D01*
X123604762Y-88395238D01*
X123509524Y-88490476D01*
X123414286Y-88538095D01*
X129552381Y-98466666D02*
X129076190Y-98800000D01*
X129552381Y-99038095D02*
X128552381Y-99038095D01*
X128552381Y-98657142D01*
X128600000Y-98561904D01*
X128647619Y-98514285D01*
X128742857Y-98466666D01*
X128885714Y-98466666D01*
X128980952Y-98514285D01*
X129028571Y-98561904D01*
X129076190Y-98657142D01*
X129076190Y-99038095D01*
X128647619Y-98085714D02*
X128600000Y-98038095D01*
X128552381Y-97942857D01*
X128552381Y-97704761D01*
X128600000Y-97609523D01*
X128647619Y-97561904D01*
X128742857Y-97514285D01*
X128838095Y-97514285D01*
X128980952Y-97561904D01*
X129552381Y-98133333D01*
X129552381Y-97514285D01*
X127033334Y-89352381D02*
X126700000Y-88876190D01*
X126461905Y-89352381D02*
X126461905Y-88352381D01*
X126842858Y-88352381D01*
X126938096Y-88400000D01*
X126985715Y-88447619D01*
X127033334Y-88542857D01*
X127033334Y-88685714D01*
X126985715Y-88780952D01*
X126938096Y-88828571D01*
X126842858Y-88876190D01*
X126461905Y-88876190D01*
X127366667Y-88352381D02*
X127985715Y-88352381D01*
X127652381Y-88733333D01*
X127795239Y-88733333D01*
X127890477Y-88780952D01*
X127938096Y-88828571D01*
X127985715Y-88923810D01*
X127985715Y-89161905D01*
X127938096Y-89257143D01*
X127890477Y-89304762D01*
X127795239Y-89352381D01*
X127509524Y-89352381D01*
X127414286Y-89304762D01*
X127366667Y-89257143D01*
X129752381Y-90866666D02*
X129276190Y-91200000D01*
X129752381Y-91438095D02*
X128752381Y-91438095D01*
X128752381Y-91057142D01*
X128800000Y-90961904D01*
X128847619Y-90914285D01*
X128942857Y-90866666D01*
X129085714Y-90866666D01*
X129180952Y-90914285D01*
X129228571Y-90961904D01*
X129276190Y-91057142D01*
X129276190Y-91438095D01*
X129085714Y-90009523D02*
X129752381Y-90009523D01*
X128704762Y-90247619D02*
X129419048Y-90485714D01*
X129419048Y-89866666D01*
X141452381Y-73114286D02*
X140976190Y-73447620D01*
X141452381Y-73685715D02*
X140452381Y-73685715D01*
X140452381Y-73304762D01*
X140500000Y-73209524D01*
X140547619Y-73161905D01*
X140642857Y-73114286D01*
X140785714Y-73114286D01*
X140880952Y-73161905D01*
X140928571Y-73209524D01*
X140976190Y-73304762D01*
X140976190Y-73685715D01*
X141404762Y-72304762D02*
X141452381Y-72400000D01*
X141452381Y-72590477D01*
X141404762Y-72685715D01*
X141309524Y-72733334D01*
X140928571Y-72733334D01*
X140833333Y-72685715D01*
X140785714Y-72590477D01*
X140785714Y-72400000D01*
X140833333Y-72304762D01*
X140928571Y-72257143D01*
X141023810Y-72257143D01*
X141119048Y-72733334D01*
X141452381Y-71685715D02*
X141404762Y-71780953D01*
X141309524Y-71828572D01*
X140452381Y-71828572D01*
X141452381Y-70876190D02*
X140928571Y-70876190D01*
X140833333Y-70923809D01*
X140785714Y-71019047D01*
X140785714Y-71209524D01*
X140833333Y-71304762D01*
X141404762Y-70876190D02*
X141452381Y-70971428D01*
X141452381Y-71209524D01*
X141404762Y-71304762D01*
X141309524Y-71352381D01*
X141214286Y-71352381D01*
X141119048Y-71304762D01*
X141071429Y-71209524D01*
X141071429Y-70971428D01*
X141023810Y-70876190D01*
X140785714Y-70495238D02*
X141452381Y-70257143D01*
X140785714Y-70019047D02*
X141452381Y-70257143D01*
X141690476Y-70352381D01*
X141738095Y-70400000D01*
X141785714Y-70495238D01*
X138452381Y-97700000D02*
X137452381Y-97700000D01*
X138166667Y-97366666D01*
X137452381Y-97033333D01*
X138452381Y-97033333D01*
X138452381Y-96557143D02*
X137785714Y-96557143D01*
X137452381Y-96557143D02*
X137500000Y-96604762D01*
X137547619Y-96557143D01*
X137500000Y-96509524D01*
X137452381Y-96557143D01*
X137547619Y-96557143D01*
X138404762Y-95652381D02*
X138452381Y-95747619D01*
X138452381Y-95938096D01*
X138404762Y-96033334D01*
X138357143Y-96080953D01*
X138261905Y-96128572D01*
X137976190Y-96128572D01*
X137880952Y-96080953D01*
X137833333Y-96033334D01*
X137785714Y-95938096D01*
X137785714Y-95747619D01*
X137833333Y-95652381D01*
X103385714Y-64566667D02*
X103861905Y-64566667D01*
X103290476Y-64852381D02*
X103623809Y-63852381D01*
X103957143Y-64852381D01*
X104861905Y-64757143D02*
X104814286Y-64804762D01*
X104671429Y-64852381D01*
X104576191Y-64852381D01*
X104433333Y-64804762D01*
X104338095Y-64709524D01*
X104290476Y-64614286D01*
X104242857Y-64423810D01*
X104242857Y-64280952D01*
X104290476Y-64090476D01*
X104338095Y-63995238D01*
X104433333Y-63900000D01*
X104576191Y-63852381D01*
X104671429Y-63852381D01*
X104814286Y-63900000D01*
X104861905Y-63947619D01*
X105242857Y-63947619D02*
X105290476Y-63900000D01*
X105385714Y-63852381D01*
X105623810Y-63852381D01*
X105719048Y-63900000D01*
X105766667Y-63947619D01*
X105814286Y-64042857D01*
X105814286Y-64138095D01*
X105766667Y-64280952D01*
X105195238Y-64852381D01*
X105814286Y-64852381D01*
X106242857Y-64852381D02*
X106242857Y-63852381D01*
X106480952Y-63852381D01*
X106623810Y-63900000D01*
X106719048Y-63995238D01*
X106766667Y-64090476D01*
X106814286Y-64280952D01*
X106814286Y-64423810D01*
X106766667Y-64614286D01*
X106719048Y-64709524D01*
X106623810Y-64804762D01*
X106480952Y-64852381D01*
X106242857Y-64852381D01*
X107814286Y-64757143D02*
X107766667Y-64804762D01*
X107623810Y-64852381D01*
X107528572Y-64852381D01*
X107385714Y-64804762D01*
X107290476Y-64709524D01*
X107242857Y-64614286D01*
X107195238Y-64423810D01*
X107195238Y-64280952D01*
X107242857Y-64090476D01*
X107290476Y-63995238D01*
X107385714Y-63900000D01*
X107528572Y-63852381D01*
X107623810Y-63852381D01*
X107766667Y-63900000D01*
X107814286Y-63947619D01*
X102385715Y-57452381D02*
X101814286Y-57452381D01*
X102100000Y-57452381D02*
X102100000Y-56452381D01*
X102004762Y-56595238D01*
X101909524Y-56690476D01*
X101814286Y-56738095D01*
X143114286Y-57047619D02*
X143161905Y-57000000D01*
X143257143Y-56952381D01*
X143495239Y-56952381D01*
X143590477Y-57000000D01*
X143638096Y-57047619D01*
X143685715Y-57142857D01*
X143685715Y-57238095D01*
X143638096Y-57380952D01*
X143066667Y-57952381D01*
X143685715Y-57952381D01*
M02*
