M48
INCH,TZ
T1C0.016
T2C0.039
T3C0.043
T4C0.047
T5C0.059
T6C0.063
T7C0.126
%
G90
G05
T1
X40709Y-33858
X41299Y-39409
X41535Y-34370
X41550Y-29145
X42244Y-35236
X42736Y-39409
X42756Y-38740
X43110Y-35354
X43740Y-28504
X45630Y-38346
X45748Y-34882
X49567Y-36220
X54567Y-39291
X55236Y-36457
T2
X48701Y-37543
X48701Y-38543
X53268Y-37071
X53268Y-38071
X55300Y-31400
X55300Y-32400
T3
X48950Y-34300
X49078Y-31150
X49950Y-34300
X50950Y-34300
X51950Y-34300
X52950Y-34300
X53822Y-31150
X53950Y-34300
T4
X51900Y-35963
X51900Y-38050
T5
X41024Y-38307
X43071Y-26732
X45039Y-26732
X47087Y-38307
X49078Y-26347
X51450Y-31957
X53822Y-26347
T6
X43150Y-22677
X45118Y-22677
X47087Y-22677
X49606Y-22677
X51575Y-22677
X53543Y-22677
T7
X41063Y-21339
X55630Y-21378
T0
M30
